<?xml version="1.0" encoding="UTF-8" standalone="no"?>
<!-- Created with Inkscape (http://www.inkscape.org/) -->

<svg
   width="150mm"
   height="150mm"
   viewBox="0 0 150 150"
   version="1.1"
   id="svg1157"
   inkscape:version="1.2.1 (9c6d41e410, 2022-07-14)"
   sodipodi:docname="ślimak.svg"
   xmlns:inkscape="http://www.inkscape.org/namespaces/inkscape"
   xmlns:sodipodi="http://sodipodi.sourceforge.net/DTD/sodipodi-0.dtd"
   xmlns="http://www.w3.org/2000/svg"
   xmlns:svg="http://www.w3.org/2000/svg">
  <sodipodi:namedview
     id="namedview1159"
     pagecolor="#ffffff"
     bordercolor="#666666"
     borderopacity="1.0"
     inkscape:showpageshadow="2"
     inkscape:pageopacity="0.0"
     inkscape:pagecheckerboard="0"
     inkscape:deskcolor="#d1d1d1"
     inkscape:document-units="mm"
     showgrid="false"
     borderlayer="true"
     showborder="true"
     inkscape:zoom="1.4912879"
     inkscape:cx="508.95606"
     inkscape:cy="240.06096"
     inkscape:window-width="1920"
     inkscape:window-height="1017"
     inkscape:window-x="-8"
     inkscape:window-y="-8"
     inkscape:window-maximized="1"
     inkscape:current-layer="layer1" />
  <defs
     id="defs1154" />
  <g
     inkscape:label="Warstwa 1"
     inkscape:groupmode="layer"
     id="layer1">
    <path
       sodipodi:type="spiral"
       style="fill:none;fill-rule:evenodd;stroke:#000000;stroke-width:0.264583"
       id="path1161"
       sodipodi:cx="96.850822"
       sodipodi:cy="60.218124"
       sodipodi:expansion="1"
       sodipodi:revolution="3"
       sodipodi:radius="62.278996"
       sodipodi:argument="-17.751415"
       sodipodi:t0="0"
       d="m 96.850822,60.218124 c 1.421558,2.780219 -3.046333,3.287893 -4.620906,2.362722 -4.266996,-2.507156 -3.102015,-8.63435 -0.104537,-11.604535 5.361785,-5.312964 14.169961,-3.290326 18.588161,2.153648 6.48389,7.989252 3.50998,19.789972 -4.41183,25.571791 C 95.743179,86.408006 80.860543,82.446284 73.74629,72.031733 64.793729,58.926084 69.759181,40.924212 82.674492,32.492685 98.316663,22.280976 119.45697,28.258299 129.19717,43.679072 140.67566,61.851919 133.68179,86.141867 115.7526,97.185376 95.052629,109.93554 67.605895,101.92222 55.262664,81.48262 41.2375,58.257852 50.27223,27.649498 73.223605,14.009059 98.971579,-1.2934514 132.74498,8.7640323 147.68079,34.228185 164.26238,62.498221 153.18116,99.43919 125.20348,115.669"
       transform="matrix(-0.87768497,-0.26074473,-0.28480982,0.95868972,178.63213,43.933065)" />
    <path
       style="fill:none;stroke:#000000;stroke-width:0.264583px;stroke-linecap:butt;stroke-linejoin:miter;stroke-opacity:1"
       d="m 35.629057,122.44352 c -3.639954,3.80723 -8.535931,7.11412 -12.79635,11.54181 30.925199,11.05207 61.777309,5.32256 80.875843,-2.93431 1.96086,-0.84773 4.05225,-4.24218 5.93863,-4.59295 10.87271,11.56372 21.49452,4.18707 24.08724,-14.55272 -0.25374,-1.99084 -5.43655,-6.08359 -11.28912,-6.25271 -4.66048,-0.13467 -9.71227,-1.34232 -22.33266,7.25635"
       id="path1212"
       sodipodi:nodetypes="ccsccsc" />
    <path
       style="fill:none;stroke:#000000;stroke-width:0.264583px;stroke-linecap:butt;stroke-linejoin:miter;stroke-opacity:1"
       d="m 35.127238,121.69079 20.825438,-9.03271"
       id="path1218" />
    <path
       style="fill:#deaa87;fill-rule:evenodd;stroke:#000000;stroke-width:0.284496;stroke-linecap:round;stroke-linejoin:round;paint-order:stroke fill markers"
       d="m 34.4999,120.16887 c -3.926829,-4.79217 -7.853593,-12.32735 -9.928294,-19.05168 -2.875539,-9.319936 -3.49206,-19.957218 -1.740871,-30.036523 3.50357,-20.16548 16.695846,-37.278013 34.271445,-44.455656 9.122841,-3.725648 18.892043,-4.735309 28.018956,-2.8958 13.418333,2.704435 24.805264,11.486411 31.045724,23.94347 6.20358,12.383458 7.13505,26.707356 2.61831,40.263667 -3.19129,9.578181 -9.92244,18.886772 -17.04163,23.567062 -0.966,0.63507 -1.869272,1.28424 -2.00727,1.44262 -0.474843,0.54495 -4.26951,2.58648 -6.651107,3.57828 -5.401939,2.24962 -9.706909,3.1134 -15.554327,3.12089 -4.641506,0.006 -7.365473,-0.38809 -11.221495,-1.62328 -3.782502,-1.21164 -8.057362,-3.34303 -9.66398,-4.81832 -0.326745,-0.30004 -0.908458,-0.71105 -1.292699,-0.91335 -1.070766,-0.56378 -5.131564,-4.67533 -6.699345,-6.78308 -5.492552,-7.384271 -7.990893,-15.67853 -7.671078,-25.467245 0.20582,-6.299539 1.454478,-11.487248 4.046313,-16.810892 3.497643,-7.184194 9.837454,-13.608185 16.594193,-16.814536 11.196423,-5.313161 23.686293,-3.681864 32.10475,4.193188 11.434755,10.69666 11.853935,30.33871 0.886579,41.544002 -2.9337,2.997345 -6.029746,4.907417 -10.057791,6.205053 -2.776152,0.894334 -7.412413,1.133644 -10.287262,0.530995 -2.287498,-0.479523 -5.910644,-2.235951 -7.742912,-3.753604 -7.233029,-5.991056 -8.876938,-17.177932 -3.674306,-25.00381 5.306168,-7.981614 16.006683,-8.76504 19.966403,-1.46182 0.823962,1.519703 0.859895,1.696072 0.859895,4.220522 0,2.457381 -0.05062,2.726116 -0.752726,3.996314 -0.854914,1.546643 -2.517849,2.778461 -3.750027,2.777837 -0.943178,-5.29e-4 -2.368087,-0.703697 -2.808385,-1.385986 -0.271338,-0.42046 -0.268314,-0.623144 0.01752,-1.174078 0.385728,-0.743492 0.241679,-1.095843 -0.273282,-0.668464 -0.554361,0.460079 -0.417489,2.062147 0.227822,2.666645 1.943758,1.820831 4.950756,1.239155 6.645674,-1.285544 1.091237,-1.62547 1.383199,-2.861191 1.28106,-5.422027 C 84.193081,70.571797 84.05395,69.986102 83.358416,68.574164 81.741817,65.292452 78.828419,63.433212 74.896292,63.173893 68.17351,62.730542 61.963721,67.7715 59.92631,75.326171 c -0.742997,2.755009 -0.742997,7.676134 0,10.431143 0.630219,2.336847 2.125102,5.290616 3.673362,7.25828 4.836924,6.147186 13.929045,8.388846 22.274804,5.491832 C 94.50428,95.511821 101.21966,86.775674 102.73446,76.574002 104.146,67.067838 101.38939,57.836803 95.195401,51.327984 86.70308,42.404007 73.290803,40.256641 61.371838,45.912681 c -4.991476,2.368658 -10.904416,7.521088 -14.040991,12.235066 -2.924574,4.395356 -5.038256,9.493501 -6.215742,14.992183 -0.772176,3.605964 -0.840026,12.095273 -0.127336,15.932713 1.636242,8.810255 6.110623,16.942947 12.209449,22.192047 l 1.780524,1.53246 -0.829802,0.34826 c -1.85855,0.78003 -18.398442,7.96913 -18.549985,8.06279 -0.08996,0.0556 -0.584086,-0.4121 -1.098052,-1.03933 z"
       id="path1220" />
    <path
       style="fill:none;stroke:#000000;stroke-width:0.264583px;stroke-linecap:butt;stroke-linejoin:miter;stroke-opacity:1"
       d="m 34.876331,120.68716 0.752726,2.50909"
       id="path1224" />
    <path
       style="fill:none;stroke:#000000;stroke-width:0.264583px;stroke-linecap:butt;stroke-linejoin:miter;stroke-opacity:1"
       d="m 128.21443,127.96352 c -0.95603,0.1211 -6.49128,-2.27549 -5.7709,-7.27636"
       id="path1228"
       inkscape:transform-center-x="-3.512724"
       inkscape:transform-center-y="3.0109063"
       sodipodi:nodetypes="cc" />
    <path
       style="fill:none;stroke:#000000;stroke-width:0.264583px;stroke-linecap:butt;stroke-linejoin:miter;stroke-opacity:1"
       d="m 125.70534,118.42898 -6.02181,4.26545"
       id="path1230" />
    <ellipse
       style="fill:none;fill-rule:evenodd;stroke:#000000;stroke-width:0.3;stroke-linecap:round;stroke-linejoin:round;paint-order:stroke fill markers"
       id="path1344"
       cx="124.32533"
       cy="111.52898"
       rx="2.1327252"
       ry="3.3872697" />
    <ellipse
       style="fill:none;fill-rule:evenodd;stroke:#000000;stroke-width:0.3;stroke-linecap:round;stroke-linejoin:round;paint-order:stroke fill markers"
       id="path1350"
       cx="124.70171"
       cy="112.00345"
       rx="1.756362"
       ry="2.8854518" />
    <path
       style="fill:none;stroke:#000000;stroke-width:0.264583px;stroke-linecap:butt;stroke-linejoin:miter;stroke-opacity:1"
       d="m 125.70534,105.88354 c -0.25091,-0.50182 -0.54436,-0.98453 -0.75273,-1.50546 -0.12807,-0.32017 -0.1761,-0.667 -0.25091,-1.00363 -0.23378,-1.05204 -0.32024,-1.67056 -0.50181,-2.76 -0.0836,-0.50182 -0.21189,-0.998211 -0.25091,-1.505451 -0.0449,-0.58373 0.0417,-1.172396 0,-1.756363 -0.0421,-0.589894 -0.17275,-1.170152 -0.25091,-1.756363 -0.0891,-0.668382 -0.14838,-1.340813 -0.25091,-2.007269 0.10116,-0.738278 -0.36656,-1.330984 -0.50182,-2.007272 -0.15502,-0.775121 0.2279,-0.273921 -0.25091,-0.752726"
       id="path1366" />
    <path
       style="fill:none;stroke:#000000;stroke-width:0.264583px;stroke-linecap:butt;stroke-linejoin:miter;stroke-opacity:1"
       d="m 129.71988,107.38899 c -0.33205,-1.32819 -0.25091,-0.65879 -0.25091,-2.00727 0,-0.25091 -0.0412,-0.50523 0,-0.75273 0.0435,-0.26088 0.18677,-0.49614 0.25091,-0.75272 0.10343,-0.41373 0.11605,-0.84997 0.25091,-1.25455 0.11828,-0.35484 0.34991,-0.66184 0.50182,-1.00363 0.18292,-0.41158 0.30039,-0.8517 0.50182,-1.25455 0.49781,-0.995631 1.03056,-1.662321 1.75636,-2.509088 0.5601,-0.653452 0.56812,-0.383508 1.00363,-1.254543 0.11828,-0.236558 0.0922,-0.541141 0.25091,-0.752726 0.32964,-0.439515 0.75273,-0.02125 0.75273,-0.752726"
       id="path1368" />
    <path
       style="fill:#e6e6e6;fill-rule:evenodd;stroke:#000000;stroke-width:0.284496;stroke-linecap:round;stroke-linejoin:round;paint-order:stroke fill markers"
       d="m 53.192675,139.73569 c -0.620998,-0.0532 -2.540449,-0.21756 -4.265448,-0.36535 -5.485106,-0.46991 -10.704886,-1.35061 -16.43453,-2.77288 -2.93683,-0.72901 -8.672933,-2.43376 -8.890963,-2.64236 -0.06003,-0.0574 0.33515,-0.56436 0.878181,-1.12649 1.473496,-1.52531 10.62487,-9.36889 11.040308,-9.46258 0.221536,-0.05 0.359744,-0.39298 0.359744,-0.89287 v -0.81175 l 9.471808,-4.10184 c 5.209495,-2.25602 9.644515,-4.14729 9.855599,-4.20284 0.211087,-0.0555 1.163587,0.42192 2.116672,1.06104 6.492047,4.35339 15.693128,6.5372 23.844967,5.65943 7.699094,-0.82901 13.478155,-2.99922 20.449067,-7.67923 4.1164,-2.76359 8.09984,-4.78637 11.41636,-5.79718 2.08729,-0.63616 2.58097,-0.68785 6.52363,-0.68309 4.82622,0.006 6.31196,0.28887 9.22977,1.75825 1.69028,0.85122 3.97253,2.71976 4.47994,3.66786 0.3215,0.60073 -0.52599,5.10935 -1.54869,8.23891 -0.78627,2.40608 -2.60204,6.13301 -3.579,7.34602 l -0.58116,0.72158 -0.86407,-0.44233 c -2.33075,-1.19313 -4.00043,-3.44692 -4.00043,-5.39992 0,-0.84242 0.12608,-0.99921 1.62494,-2.02073 1.56067,-1.06366 1.94718,-1.48382 1.36497,-1.48382 -0.34639,0 -6.22238,4.07624 -6.23918,4.32818 -0.025,0.37446 0.54616,0.17315 1.63588,-0.5766 l 1.11157,-0.76478 v 0.84097 c 0,1.83969 1.87414,4.42008 3.91832,5.39488 0.46692,0.22266 0.84895,0.53956 0.84895,0.70421 0,0.48155 -2.61225,2.35975 -4.03263,2.89945 -3.61468,1.37347 -8.26626,-0.10006 -11.86746,-3.75939 -1.14019,-1.1586 -1.27127,-1.22444 -1.95984,-0.98441 -0.40585,0.14148 -1.68244,1.13229 -2.83686,2.2018 -1.72582,1.59888 -2.49252,2.10995 -4.31289,2.87491 -8.898268,3.73924 -20.532341,6.61296 -31.570266,7.79814 -3.360007,0.36077 -14.820812,0.67739 -17.187259,0.47481 z M 125.86327,114.7908 c 0.0197,0 0.21802,-0.38402 0.44075,-0.85337 0.90856,-1.91466 0.23777,-5.19737 -1.1842,-5.79527 -2.29388,-0.9645 -3.98784,2.3566 -2.76317,5.41735 0.49998,1.24959 1.51084,1.79341 2.69978,1.45242 0.42408,-0.12162 0.78715,-0.22113 0.80684,-0.22113 z"
       id="path1652" />
    <path
       style="fill:#ffffff;fill-rule:evenodd;stroke:#000000;stroke-width:1.07526;stroke-linecap:round;stroke-linejoin:round;paint-order:stroke fill markers"
       d="m 467.93625,430.58021 c -2.53931,-3.87547 -2.75477,-9.93705 -0.48191,-13.55783 2.50716,-3.99405 5.21184,-3.99405 7.71619,0 2.31877,3.69804 1.9747,9.22902 -0.80603,12.95725 -2.48268,3.32863 -4.51628,3.51863 -6.42825,0.60058 z"
       id="path1908"
       transform="scale(0.26458333)" />
    <path
       style="fill:#ffffff;fill-rule:evenodd;stroke:#000000;stroke-width:0.134407;stroke-linecap:round;stroke-linejoin:round;paint-order:stroke fill markers"
       d="m 465.89154,431.73246 c -2.21148,-2.4197 -3.38783,-5.96337 -3.38783,-10.20558 0,-2.94434 0.47957,-5.22126 1.57292,-7.46799 1.02604,-2.10842 2.17421,-3.37444 3.79309,-4.1824 0.83377,-0.41613 0.94591,-0.44065 2.01518,-0.44065 1.05753,0 1.19096,0.0283 2.02132,0.42809 1.01222,0.4874 1.79193,1.13512 2.53176,2.1032 0.52423,0.68596 1.14297,1.68602 1.14297,1.84735 0,0.0497 -0.29478,-0.17902 -0.65506,-0.5083 -2.17716,-1.9898 -5.05043,-1.98719 -7.23192,0.007 -1.59383,1.45668 -2.69946,3.65322 -3.33656,6.6287 -0.30168,1.40898 -0.3043,5.31052 -0.005,6.74192 0.41316,1.97275 1.28454,4.17494 2.0481,5.17601 0.15921,0.20874 0.28948,0.40976 0.28948,0.44671 0,0.19685 -0.27566,-10e-4 -0.79894,-0.57362 z"
       id="path1910"
       transform="scale(0.26458333)" />
  </g>
</svg>
