<?xml version="1.0" encoding="UTF-8" standalone="no"?>
<!-- Created with Inkscape (http://www.inkscape.org/) -->

<svg
   width="150mm"
   height="150mm"
   viewBox="0 0 150 150"
   version="1.1"
   id="svg1933"
   inkscape:version="1.2.1 (9c6d41e410, 2022-07-14)"
   sodipodi:docname="żaba.svg"
   xmlns:inkscape="http://www.inkscape.org/namespaces/inkscape"
   xmlns:sodipodi="http://sodipodi.sourceforge.net/DTD/sodipodi-0.dtd"
   xmlns="http://www.w3.org/2000/svg"
   xmlns:svg="http://www.w3.org/2000/svg">
  <sodipodi:namedview
     id="namedview1935"
     pagecolor="#ffffff"
     bordercolor="#666666"
     borderopacity="1.0"
     inkscape:showpageshadow="2"
     inkscape:pageopacity="0.0"
     inkscape:pagecheckerboard="0"
     inkscape:deskcolor="#d1d1d1"
     inkscape:document-units="mm"
     showgrid="false"
     inkscape:zoom="2.1956715"
     inkscape:cx="281.91831"
     inkscape:cy="201.30515"
     inkscape:window-width="1920"
     inkscape:window-height="1017"
     inkscape:window-x="-8"
     inkscape:window-y="-8"
     inkscape:window-maximized="1"
     inkscape:current-layer="layer1" />
  <defs
     id="defs1930" />
  <g
     inkscape:label="Warstwa 1"
     inkscape:groupmode="layer"
     id="layer1">
    <path
       id="path2388"
       style="fill:#ffffff;fill-rule:evenodd;stroke:#000000;stroke-width:0.316714;stroke-linecap:round;stroke-linejoin:round;paint-order:stroke fill markers"
       d="m 52.431588,90.218223 c 2e-6,7.418157 -6.636453,10.489657 -12.035723,10.633487 -5.078661,0.13528 -11.828139,0.17771 -13.147847,-2.220983 -0.684964,-1.244981 -0.802068,0.0302 6.930033,-4.231295 1.166395,-0.642842 -1.304517,-2.617382 -1.304517,-4.181209 2e-6,-7.418158 4.37822,-13.431758 9.779024,-13.431758 5.400805,0 9.779022,6.0136 9.779025,13.431758 z"
       sodipodi:nodetypes="ssssssss" />
    <ellipse
       style="fill:#ffffff;fill-rule:evenodd;stroke:#000000;stroke-width:0.3;stroke-linecap:round;stroke-linejoin:round;paint-order:stroke fill markers"
       id="path2314"
       cx="66.490845"
       cy="72.010841"
       rx="22.079979"
       ry="31.614517" />
    <path
       id="path1989"
       style="fill:#ffffff;fill-rule:evenodd;stroke:#000000;stroke-width:0.3;stroke-linecap:round;stroke-linejoin:round;paint-order:stroke fill markers"
       d="m 105.38172,43.909051 c 1.46799,2.499387 -0.66463,9.147613 -7.492855,12.380123 -1.034363,0.489671 -1.795712,2.374953 -2.859326,3.078015 -4.693744,3.102621 -10.638541,6.359187 -23.645964,6.370934 -14.462365,0.01306 -25.006745,-2.159998 -31.157884,-9.600898 -1.900356,-2.298819 -8.333756,-2.740261 -8.360262,-10.471811 -0.02903,-8.467416 4.697788,-6.314055 7.970255,-10.478207 5.923334,-7.537329 11.594404,-10.220181 29.791529,-10.09632 9.155051,0.06232 18.40342,2.818117 23.715153,6.628507 2.312133,1.658616 3.614257,5.360564 4.533665,5.874881 5.727249,3.20383 5.419559,2.762918 7.505689,6.314776 z"
       sodipodi:nodetypes="sssssssssss" />
    <ellipse
       style="fill:#ffffff;fill-rule:evenodd;stroke:#000000;stroke-width:0.3;stroke-linecap:round;stroke-linejoin:round;paint-order:stroke fill markers"
       id="path1991"
       cx="61.593361"
       cy="31.566347"
       rx="7.1509023"
       ry="14.17635" />
    <ellipse
       style="fill:#ffffff;fill-rule:evenodd;stroke:#000000;stroke-width:0.148549;stroke-linecap:round;stroke-linejoin:round;paint-order:stroke fill markers"
       id="path1991-8"
       cx="61.598129"
       cy="33.119965"
       rx="3.8393581"
       ry="6.4739003" />
    <ellipse
       style="fill:#ffffff;fill-rule:evenodd;stroke:#000000;stroke-width:0.3;stroke-linecap:round;stroke-linejoin:round;paint-order:stroke fill markers"
       id="path1991-2"
       cx="78.23716"
       cy="31.418306"
       rx="7.1509023"
       ry="14.17635" />
    <circle
       style="fill:#ffffff;fill-rule:evenodd;stroke:#000000;stroke-width:0.3;stroke-linecap:round;stroke-linejoin:round;paint-order:stroke fill markers"
       id="path2017"
       cx="39.367104"
       cy="45.982315"
       r="3.6381786" />
    <circle
       style="fill:#ffffff;fill-rule:evenodd;stroke:#000000;stroke-width:0.3;stroke-linecap:round;stroke-linejoin:round;paint-order:stroke fill markers"
       id="path2017-8"
       cx="99.663048"
       cy="46.752327"
       r="3.6381786" />
    <path
       style="fill:none;stroke:#000000;stroke-width:0.264583px;stroke-linecap:butt;stroke-linejoin:miter;stroke-opacity:1"
       d="m 40.898143,48.927226 c 21.23778,13.352627 39.126578,9.960341 55.701765,0"
       id="path2041"
       sodipodi:nodetypes="cc" />
    <path
       style="fill:none;stroke:#000000;stroke-width:0.264583px;stroke-linecap:butt;stroke-linejoin:miter;stroke-opacity:1"
       d="m 64.734484,47.672683 c -1.057553,0.201152 -0.06019,0.873103 -0.250909,1.254543 -0.0529,0.105793 -0.167273,0.167275 -0.250908,0.250909"
       id="path2043" />
    <path
       style="fill:none;stroke:#000000;stroke-width:0.264583px;stroke-linecap:butt;stroke-linejoin:miter;stroke-opacity:1"
       d="m 71.509024,48.425409 c -0.264808,0.79734 -0.25091,1.47398 -0.25091,2.258179"
       id="path2045" />
    <ellipse
       style="fill:#ffffff;fill-rule:evenodd;stroke:#000000;stroke-width:0.148549;stroke-linecap:round;stroke-linejoin:round;paint-order:stroke fill markers"
       id="path1991-8-1"
       cx="78.283569"
       cy="33.621784"
       rx="3.8393581"
       ry="6.4739003" />
    <ellipse
       style="fill:#ffffff;fill-rule:evenodd;stroke:#000000;stroke-width:0.0501348;stroke-linecap:round;stroke-linejoin:round;paint-order:stroke fill markers"
       id="path1991-8-5"
       cx="62.350853"
       cy="31.61451"
       rx="1.2540222"
       ry="2.2576568" />
    <ellipse
       style="fill:#ffffff;fill-rule:evenodd;stroke:#000000;stroke-width:0.0501348;stroke-linecap:round;stroke-linejoin:round;paint-order:stroke fill markers"
       id="path1991-8-5-8"
       cx="79.036285"
       cy="31.614517"
       rx="1.2540222"
       ry="2.2576568" />
    <path
       id="path2388-8"
       style="fill:#ffffff;fill-rule:evenodd;stroke:#000000;stroke-width:0.316714;stroke-linecap:round;stroke-linejoin:round;paint-order:stroke fill markers"
       d="m 80.032931,91.563982 c 0,7.418156 6.636455,10.489658 12.035725,10.633488 5.078661,0.13528 11.828144,0.17771 13.147844,-2.220984 0.68497,-1.244978 0.80207,0.0302 -6.930031,-4.231293 -1.166394,-0.64285 1.30452,-2.61739 1.30452,-4.181211 0,-7.41816 -4.378222,-13.43176 -9.779026,-13.43176 -5.400802,0 -9.779022,6.0136 -9.779022,13.43176 z"
       sodipodi:nodetypes="ssssssss" />
    <ellipse
       style="fill:#ffffff;fill-rule:evenodd;stroke:#000000;stroke-width:0.349694;stroke-linecap:round;stroke-linejoin:round;paint-order:stroke fill markers"
       id="path2450"
       cx="66.372177"
       cy="87.624825"
       rx="16.674154"
       ry="15.656956" />
    <ellipse
       style="fill:#ffffff;fill-rule:evenodd;stroke:#000000;stroke-width:0.215247;stroke-linecap:round;stroke-linejoin:round;paint-order:stroke fill markers"
       id="path2316"
       cx="47.672684"
       cy="82.549011"
       rx="5.3114624"
       ry="20.867809" />
    <ellipse
       style="fill:#ffffff;fill-rule:evenodd;stroke:#000000;stroke-width:0.215247;stroke-linecap:round;stroke-linejoin:round;paint-order:stroke fill markers"
       id="path2316-9"
       cx="-84.791824"
       cy="83.894768"
       rx="5.3114624"
       ry="20.867809"
       transform="scale(-1,1)" />
    <circle
       style="fill:#ffffff;fill-rule:evenodd;stroke:#000000;stroke-width:0.3;stroke-linecap:round;stroke-linejoin:round;paint-order:stroke fill markers"
       id="path2342"
       cx="51.992828"
       cy="101.06157"
       r="2.2581797" />
    <circle
       style="fill:#ffffff;fill-rule:evenodd;stroke:#000000;stroke-width:0.3;stroke-linecap:round;stroke-linejoin:round;paint-order:stroke fill markers"
       id="path2342-0"
       cx="47.732143"
       cy="103.9036"
       r="2.2581797" />
    <circle
       style="fill:#ffffff;fill-rule:evenodd;stroke:#000000;stroke-width:0.3;stroke-linecap:round;stroke-linejoin:round;paint-order:stroke fill markers"
       id="path2342-0-1"
       cx="43.40723"
       cy="101.31246"
       r="2.2581797" />
    <circle
       style="fill:#ffffff;fill-rule:evenodd;stroke:#000000;stroke-width:0.3;stroke-linecap:round;stroke-linejoin:round;paint-order:stroke fill markers"
       id="path2342-9"
       cx="-80.47168"
       cy="102.40733"
       r="2.2581797"
       transform="scale(-1,1)" />
    <circle
       style="fill:#ffffff;fill-rule:evenodd;stroke:#000000;stroke-width:0.3;stroke-linecap:round;stroke-linejoin:round;paint-order:stroke fill markers"
       id="path2342-0-6"
       cx="-84.732376"
       cy="105.24936"
       r="2.2581797"
       transform="scale(-1,1)" />
    <circle
       style="fill:#ffffff;fill-rule:evenodd;stroke:#000000;stroke-width:0.3;stroke-linecap:round;stroke-linejoin:round;paint-order:stroke fill markers"
       id="path2342-0-1-4"
       cx="-89.057281"
       cy="102.65823"
       r="2.2581797"
       transform="scale(-1,1)" />
    <path
       style="fill:#ff0000;fill-rule:evenodd;stroke:#000000;stroke-width:1.07526;stroke-linecap:round;stroke-linejoin:round;paint-order:stroke fill markers"
       d="m 144.09716,186.0039 c -13.26031,-5.9831 -9.54619,-25.26418 4.86665,-25.26418 7.04453,0 12.72775,5.80456 12.72068,12.99227 -0.004,3.98129 -2.88311,9.49257 -5.4547,10.44125 -0.90977,0.33562 -1.90203,0.97653 -2.20502,1.42423 -1.00554,1.4858 -6.99221,1.73089 -9.92761,0.40643 z"
       id="path2537"
       transform="scale(0.26458333)" />
    <path
       style="fill:#f50a75;fill-rule:evenodd;stroke:#000000;stroke-width:1.07526;stroke-linecap:round;stroke-linejoin:round;paint-order:stroke fill markers;fill-opacity:1"
       d="m 371.28499,188.47652 c -9.5054,-4.77568 -10.0347,-18.26472 -0.90875,-23.15902 8.09743,-4.3427 17.33587,0.15801 19.34235,9.42304 1.04894,4.84353 -2.51581,11.34793 -7.44644,13.5871 -4.86812,2.21078 -6.83029,2.23736 -10.98716,0.14888 z"
       id="path2539"
       transform="scale(0.26458333)" />
    <path
       style="fill:#f50a75;fill-opacity:1;fill-rule:evenodd;stroke:#000000;stroke-width:1.07526;stroke-linecap:round;stroke-linejoin:round;paint-order:stroke fill markers"
       d="m 142.62486,184.19805 c -7.15621,-4.76647 -8.15324,-13.48629 -2.22142,-19.42798 2.58979,-2.5941 3.77498,-3.08203 7.48626,-3.08203 8.03879,0 12.85002,4.43829 12.85002,11.85396 0,4.58894 -2.12549,8.40967 -6.01592,10.81409 -4.15948,2.5707 -8.07898,2.5195 -12.09894,-0.15804 z"
       id="path4460"
       transform="scale(0.26458333)" />
    <path
       style="fill:#a1d77f;fill-opacity:1;fill-rule:evenodd;stroke:#000000;stroke-width:1.07526;stroke-linecap:round;stroke-linejoin:round;paint-order:stroke fill markers"
       d="m 238.50171,246.97625 c -38.77541,-3.39561 -64.71772,-13.16992 -81.70554,-30.78429 -3.69681,-3.83316 -9.33463,-8.21335 -14.63317,-11.36896 -9.58549,-5.70874 -15.65267,-11.64406 -18.71901,-18.31213 -1.69135,-3.67801 -2.04074,-6.21261 -2.04921,-14.8655 -0.0164,-16.76261 3.08209,-21.57379 19.15218,-29.73847 2.19413,-1.11476 5.87852,-4.05461 8.18755,-6.533 2.30902,-2.47839 6.91496,-7.4354 10.23543,-11.01558 7.32868,-7.90191 15.36916,-13.78588 24.7804,-18.13414 7.06635,-3.26486 21.33048,-7.670962 22.15721,-6.844232 0.24154,0.241535 -0.0131,4.885152 -0.56584,10.319152 -3.34442,32.87865 10.08306,64.31706 27.4701,64.31706 13.61322,0 25.17599,-19.05713 27.41752,-45.1881 0.7579,-8.83522 0.16319,-22.10962 -1.34249,-29.966019 l -0.68155,-3.556188 h 5.90307 5.90308 l -0.58734,3.08203 c -1.2971,6.806437 -1.72692,28.889807 -0.69132,35.519177 5.17947,33.15645 24.35941,48.97905 40.07893,33.06333 9.70264,-9.82373 16.07621,-32.76406 14.79748,-53.26043 -0.27356,-4.38494 -0.40481,-7.97262 -0.29167,-7.97262 0.70531,0 13.18381,5.35303 17.12656,7.34695 10.96102,5.54321 15.22963,9.29787 21.9708,19.3255 6.32039,9.40171 6.70287,9.76692 15.48942,14.79007 11.05834,6.3219 15.04408,10.07982 19.03927,17.95096 2.98297,5.87694 3.05629,6.29191 2.05914,11.6538 -2.29724,12.35281 -12.12935,25.55125 -24.36472,32.70677 -3.64853,2.13373 -8.26142,5.96245 -11.01974,9.14643 -10.2555,11.83807 -34.29753,22.54328 -60.63099,26.99721 -10.81981,1.83001 -49.60186,2.62461 -64.48555,1.32122 z m 44.85896,-29.89053 c 23.51274,-3.26815 52.17978,-13.63422 75.49621,-27.29961 l 5.77288,-3.38339 3.4505,2.34157 c 9.56507,6.49104 23.08684,-0.29087 23.09693,-11.58437 0.005,-5.07243 -1.02812,-7.71842 -4.27934,-10.96501 -10.28726,-10.2726 -28.14463,-0.1649 -24.41239,13.81799 0.61636,2.30919 0.70404,4.35672 0.21195,4.94965 -1.4762,1.77872 -26.65061,14.3767 -36.70036,18.36589 -23.58953,9.36371 -43.98571,13.45761 -66.9878,13.4457 -31.28612,-0.0162 -59.84844,-7.96964 -91.31136,-25.4265 l -9.63738,-5.3472 2.525,-3.31045 c 3.31067,-4.3405 3.59648,-12.78953 0.56977,-16.84347 -4.98279,-6.67391 -11.75601,-8.56889 -18.66803,-5.22284 -10.18796,4.93191 -11.115,19.18044 -1.66218,25.54769 2.86016,1.92656 4.17143,2.17846 9.48317,1.82177 6.05456,-0.40658 6.34133,-0.31544 16.14442,5.13093 39.11991,21.73415 77.03066,29.5044 116.90801,23.96165 z M 270.74449,187.2926 c 0,-2.60788 -0.42675,-4.74159 -0.94832,-4.74159 -0.52157,0 -0.94832,1.4587 -0.94832,3.24155 0,1.78285 -0.25902,3.91657 -0.57562,4.74158 -0.37772,0.98435 -0.0517,1.50004 0.94832,1.50004 1.19651,0 1.52394,-1.01875 1.52394,-4.74158 z m -25.97795,-4.57509 c 0.10081,-2.00439 -0.28713,-3.01145 -1.16006,-3.01145 -0.87246,0 -1.3115,1.13757 -1.3115,3.39814 0,4.29837 2.25366,3.94578 2.47156,-0.38669 z M 357.99808,144.122 c 1.09193,-2.872 -0.48005,-7.70651 -2.67595,-8.22969 -4.60528,-1.09722 -7.5829,3.39712 -5.74455,8.67064 1.57891,4.52925 6.63142,4.26467 8.4205,-0.44095 z m -13.82677,-10.47705 c 3.4383,-3.43829 -0.0773,-10.83791 -5.14909,-10.83791 -5.43093,0 -7.38903,5.16929 -3.72335,9.82944 2.26102,2.87443 6.52215,3.35877 8.87244,1.00847 z"
       id="path4462"
       transform="scale(0.26458333)" />
    <path
       style="fill:#a1d77f;fill-opacity:1;fill-rule:evenodd;stroke:#000000;stroke-width:0.284496;stroke-linecap:round;stroke-linejoin:round;paint-order:stroke fill markers"
       d="m 45.43613,100.88963 c -1.027624,-2.054938 -1.707256,-4.534253 -2.331982,-8.507122 -0.630103,-4.007059 -0.630103,-15.659928 0,-19.66699 1.063122,-6.760789 2.799746,-10.866485 4.596294,-10.866485 1.49116,0 3.318319,3.869455 4.206015,8.907264 1.212942,6.88362 1.221417,16.719066 0.02021,23.459977 -0.509426,2.85881 -1.308777,5.490321 -1.893581,6.233776 -0.263228,0.33464 -0.478597,0.8052 -0.478597,1.04569 0,0.65651 -0.489196,0.92445 -1.927595,1.05578 l -1.300324,0.11873 z"
       id="path13022" />
    <path
       style="fill:#a1d77f;fill-opacity:1;fill-rule:evenodd;stroke:#000000;stroke-width:0.284496;stroke-linecap:round;stroke-linejoin:round;paint-order:stroke fill markers"
       d="m 83.198147,103.64469 c -0.131376,-0.1311 -0.238863,-0.42637 -0.238863,-0.65616 0,-0.22979 -0.221822,-0.6998 -0.492935,-1.04447 -0.661254,-0.84064 -1.619123,-4.229902 -2.148311,-7.601426 -0.648438,-4.131281 -0.791614,-14.040239 -0.268345,-18.57167 0.723616,-6.266397 2.073018,-10.657525 3.694308,-12.021751 1.004316,-0.845074 1.380776,-0.807324 2.365941,0.237254 3.885732,4.120076 5.132803,23.354689 2.253488,34.757389 -0.225885,0.89456 -0.814578,2.422534 -1.308206,3.395504 l -0.897501,1.76903 -1.360358,-0.0127 c -0.748196,-0.007 -1.467845,-0.11994 -1.599218,-0.25103 z"
       id="path13024" />
    <path
       style="fill:#a1d77f;fill-opacity:1;fill-rule:evenodd;stroke:#000000;stroke-width:0.284496;stroke-linecap:round;stroke-linejoin:round;paint-order:stroke fill markers"
       d="m 90.375864,101.63142 c -0.267875,-0.2106 -0.906052,-0.38291 -1.418169,-0.38291 H 88.02657 l 0.363676,-1.19182 C 89.62305,96.0166 90.23564,90.603217 90.23564,83.749149 v -5.33335 l 0.689999,0.0024 c 1.139984,0.004 3.267057,1.159626 4.539877,2.466382 2.11314,2.16948 3.532156,5.496843 3.94484,9.250003 0.147478,1.341249 0.09184,1.70635 -0.401455,2.634543 -1.458389,2.74411 -1.406996,2.476738 -0.59979,3.120382 0.398849,0.318032 2.110259,1.228847 3.803129,2.024033 1.69286,0.795187 3.07793,1.537254 3.07793,1.649034 0,0.492924 -1.30529,1.433364 -2.54176,1.831294 -1.93405,0.62244 -11.645802,0.80887 -12.372546,0.2375 z m 6.382022,-6.650503 c 0.46531,-1.728028 -0.263292,-3.294893 -1.2793,-2.751143 -0.569542,0.304811 -1.04685,1.988622 -0.829087,2.924789 0.379978,1.633535 1.649928,1.528943 2.108387,-0.173646 z m -0.07102,-7.550229 c 0.687027,-1.440553 -0.918972,-4.118163 -2.369696,-3.950883 -1.516846,0.174903 -1.543587,2.530711 -0.04573,4.028565 0.912159,0.912159 1.959417,0.878477 2.415429,-0.07768 z"
       id="path13028" />
    <path
       style="fill:#a1d77f;fill-opacity:1;fill-rule:evenodd;stroke:#000000;stroke-width:0.284496;stroke-linecap:round;stroke-linejoin:round;paint-order:stroke fill markers"
       d="m 31.840862,100.48975 c -1.920478,-0.2816 -3.159721,-0.741655 -3.927253,-1.457962 -0.3795,-0.354171 -0.689999,-0.727927 -0.689999,-0.830566 0,-0.102643 1.637181,-0.977374 3.63818,-1.943849 4.119885,-1.989892 4.221654,-2.13042 2.97407,-4.106722 -0.870905,-1.379601 -0.990674,-2.681674 -0.482185,-5.242044 1.033235,-5.202568 4.24457,-9.099828 8.148892,-9.889448 l 0.855331,-0.172984 -0.16542,2.896301 c -0.321334,5.626171 0.553252,14.674786 1.806631,18.691719 l 0.494051,1.583375 -0.66842,-0.146251 c -0.424285,-0.09284 -1.031449,0.03908 -1.662377,0.361171 -0.884637,0.4516 -1.436587,0.50397 -5.018177,0.47611 -2.213319,-0.0172 -4.599816,-0.1157 -5.303324,-0.21885 z"
       id="path13030" />
    <path
       style="fill:#63aa36;fill-opacity:1;fill-rule:evenodd;stroke:#000000;stroke-width:0.284496;stroke-linecap:round;stroke-linejoin:round;paint-order:stroke fill markers"
       d="m 42.007931,102.71177 c -0.442142,-0.44214 -0.733425,-0.99788 -0.733425,-1.3993 0,-0.88019 1.252535,-2.132714 2.132727,-2.132714 0.88019,0 2.132724,1.252524 2.132724,2.132714 0,0.88019 -1.252534,2.13273 -2.132724,2.13273 -0.40142,0 -0.957156,-0.29128 -1.399302,-0.73343 z"
       id="path14274" />
    <path
       style="fill:#63aa36;fill-opacity:1;fill-rule:evenodd;stroke:#000000;stroke-width:0.284496;stroke-linecap:round;stroke-linejoin:round;paint-order:stroke fill markers"
       d="m 46.189533,105.18231 c -0.357267,-0.42459 -0.649576,-0.93829 -0.649576,-1.14155 0,-0.7224 0.739728,-1.78384 1.447485,-2.077 2.009373,-0.83231 3.746683,1.83007 2.202098,3.37466 -0.90678,0.90678 -2.160539,0.84154 -3.000007,-0.15611 z"
       id="path14828" />
    <path
       style="fill:#63aa36;fill-opacity:1;fill-rule:evenodd;stroke:#000000;stroke-width:0.284496;stroke-linecap:round;stroke-linejoin:round;paint-order:stroke fill markers"
       d="m 50.647397,102.59953 c -1.821968,-1.56719 0.132977,-4.505333 2.248138,-3.378794 0.804305,0.428377 1.159365,0.992134 1.159365,1.840824 0,0.8487 -0.35506,1.41246 -1.159365,1.84084 -0.830029,0.44207 -1.484611,0.35389 -2.248138,-0.30287 z"
       id="path14830" />
    <path
       style="fill:#63aa36;fill-opacity:1;fill-rule:evenodd;stroke:#000000;stroke-width:0.284496;stroke-linecap:round;stroke-linejoin:round;paint-order:stroke fill markers"
       d="m 79.058791,103.83975 c -1.631492,-1.63149 0.312536,-4.350117 2.355294,-3.29377 0.788247,0.40762 1.373048,1.63295 1.120857,2.34853 -0.556746,1.57976 -2.353154,2.06824 -3.476151,0.94524 z"
       id="path14832" />
    <path
       style="fill:#63aa36;fill-opacity:1;fill-rule:evenodd;stroke:#000000;stroke-width:1.07526;stroke-linecap:round;stroke-linejoin:round;paint-order:stroke fill markers"
       d=""
       id="path14834"
       transform="scale(0.26458333)" />
    <path
       style="fill:#63aa36;fill-opacity:1;fill-rule:evenodd;stroke:#000000;stroke-width:1.07526;stroke-linecap:round;stroke-linejoin:round;paint-order:stroke fill markers"
       d=""
       id="path14836"
       transform="scale(0.26458333)" />
    <path
       style="fill:#63aa36;fill-opacity:1;fill-rule:evenodd;stroke:#000000;stroke-width:1.07526;stroke-linecap:round;stroke-linejoin:round;paint-order:stroke fill markers"
       d=""
       id="path14838"
       transform="scale(0.26458333)" />
    <path
       style="fill:#63aa36;fill-opacity:1;fill-rule:evenodd;stroke:#000000;stroke-width:0.284496;stroke-linecap:round;stroke-linejoin:round;paint-order:stroke fill markers"
       d="m 84.213827,107.28933 c -2.256481,-0.82487 -1.799786,-4.08826 0.572129,-4.08826 2.14248,0 2.738001,3.08947 0.768499,3.98683 -0.661427,0.30137 -0.770999,0.30966 -1.340628,0.10143 z"
       id="path14840" />
    <path
       style="fill:#63aa36;fill-opacity:1;fill-rule:evenodd;stroke:#000000;stroke-width:0.284496;stroke-linecap:round;stroke-linejoin:round;paint-order:stroke fill markers"
       d="m 87.58969,104.09066 c -1.544584,-1.54459 0.192728,-4.206967 2.202098,-3.37466 0.707761,0.29316 1.447486,1.3546 1.447486,2.077 0,0.20327 -0.292309,0.71696 -0.649576,1.14155 -0.839468,0.99765 -2.093225,1.06289 -3.000008,0.15611 z"
       id="path14842" />
    <path
       style="fill:#a1d77f;fill-opacity:1;fill-rule:evenodd;stroke:#000000;stroke-width:0.610281;stroke-linecap:round;stroke-linejoin:round;paint-order:stroke fill markers"
       d="m 200.30098,291.61501 c -0.16216,-1.12483 -0.44478,-3.98279 -0.62806,-6.35102 -1.26298,-16.31979 -4.97482,-33.27829 -9.46744,-43.25448 -1.31102,-2.91121 -1.40204,-3.38526 -0.60657,-3.15918 0.51475,0.14629 3.72127,1.11979 7.1256,2.16332 15.67218,4.804 34.49894,7.25101 62.97337,8.18497 15.23987,0.49987 36.71038,-0.83399 48.05476,-2.98541 1.4924,-0.28303 2.78825,-0.43981 2.87964,-0.34841 0.0914,0.0914 -0.56333,1.95884 -1.45497,4.14985 -3.09787,7.61236 -6.14231,21.12578 -7.45627,33.0964 -0.32494,2.96029 -0.72707,6.43142 -0.89364,7.71362 l -0.30283,2.33128 -3.60863,-3.54568 c -9.03095,-8.87339 -20.3941,-14.79439 -33.30248,-17.35294 -6.42729,-1.27395 -19.1656,-1.27395 -25.59289,0 -12.77663,2.53243 -23.63239,8.13927 -32.76705,16.92369 l -4.65771,4.47913 z"
       id="path15078"
       transform="scale(0.26458333)" />
    <path
       style="fill:#a1d77f;fill-opacity:1;fill-rule:evenodd;stroke:#000000;stroke-width:0.610281;stroke-linecap:round;stroke-linejoin:round;paint-order:stroke fill markers"
       d=""
       id="path15080"
       transform="scale(0.26458333)" />
    <path
       style="fill:#a1d77f;fill-opacity:1;fill-rule:evenodd;stroke:#000000;stroke-width:0.305141;stroke-linecap:round;stroke-linejoin:round;paint-order:stroke fill markers"
       d="m 171.1482,239.58138 c 0.074,-0.33303 0.51172,-2.30095 0.97262,-4.37315 0.46091,-2.0722 0.92659,-3.86168 1.03486,-3.97662 0.17517,-0.18597 1.70446,0.5236 3.46904,1.6096 l 0.62221,0.38294 -1.02589,0.7461 c -1.40176,1.01945 -2.74609,2.55759 -3.97389,4.54678 -0.56688,0.91842 -1.07635,1.66987 -1.13214,1.66987 -0.0558,0 -0.0409,-0.27248 0.0332,-0.60552 z"
       id="path15082"
       transform="scale(0.26458333)" />
    <path
       style="fill:#f4d7d7;fill-opacity:1;fill-rule:evenodd;stroke:#000000;stroke-width:0.305141;stroke-linecap:round;stroke-linejoin:round;paint-order:stroke fill markers"
       d="m 333.44682,255.06814 c -0.75231,-3.00676 -3.71225,-9.56189 -5.50076,-12.18206 l -1.03017,-1.50919 2.14121,-0.75844 c 1.17767,-0.41714 2.23865,-0.65462 2.35774,-0.52772 0.39722,0.42326 2.62602,15.32428 2.33556,15.61474 -0.0634,0.0634 -0.20001,-0.2234 -0.30358,-0.63733 z"
       id="path15084"
       transform="scale(0.26458333)" />
    <path
       style="fill:#000000;fill-opacity:1;fill-rule:evenodd;stroke:#000000;stroke-width:0.305141;stroke-linecap:round;stroke-linejoin:round;paint-order:stroke fill markers"
       d="m 247.04938,390.0437 c -12.82276,-0.64475 -25.25214,-5.15619 -35.5685,-12.91013 -4.85156,-3.64652 -10.39765,-9.46697 -13.81307,-14.4964 l -1.12531,-1.6571 0.95509,-5.83312 c 2.57267,-15.71215 3.74051,-34.82382 3.16016,-51.7157 l -0.2542,-7.39885 1.48205,-1.8115 c 5.62474,-6.87511 15.03593,-13.58131 24.24515,-17.27653 7.55907,-3.0331 14.23815,-4.4029 22.68459,-4.65232 11.6029,-0.34262 21.31174,1.75894 31.4411,6.80572 6.91233,3.44395 11.89159,7.10542 17.32107,12.73697 2.73584,2.83765 3.12904,3.3579 3.02103,3.9972 -0.62113,3.6762 -0.87168,26.61129 -0.39169,35.85473 0.52433,10.09755 1.66266,21.25101 2.92089,28.61918 l 0.49838,2.91852 -1.53824,2.06014 c -12.39808,16.60468 -32.98964,25.86784 -55.0385,24.75919 z"
       id="path15155"
       transform="scale(0.26458333)" />
    <path
       style="fill:#000000;fill-opacity:1;fill-rule:evenodd;stroke:#000000;stroke-width:0.305141;stroke-linecap:round;stroke-linejoin:round;paint-order:stroke fill markers"
       d="m 230.30655,149.12029 c -4.17665,-1.36511 -7.91397,-5.90068 -10.00418,-12.14093 -4.52401,-13.50633 -0.25701,-30.91772 8.60399,-35.1083 2.21495,-1.04751 3.82241,-1.236 5.93191,-0.69557 9.07631,2.32524 14.58741,18.06672 11.3896,32.53238 -1.23471,5.58534 -4.07643,10.82831 -7.252,13.37991 -2.53538,2.0372 -6.09885,2.87266 -8.66932,2.03251 z m 7.21666,-21.50132 c 0.57285,-0.38544 1.24148,-1.26506 1.78996,-2.35478 1.72586,-3.42895 1.72629,-8.12894 10e-4,-11.55251 -1.13403,-2.25039 -2.26484,-3.07184 -3.97143,-2.88497 -1.01936,0.11162 -1.3888,0.32888 -2.33427,1.37274 -1.65131,1.82315 -2.10616,3.39718 -2.10616,7.28848 0,3.78131 0.42868,5.35867 1.93442,7.11778 1.51484,1.76975 3.06424,2.10474 4.68643,1.01326 z"
       id="path15157"
       transform="scale(0.26458333)" />
    <path
       style="fill:#000000;fill-opacity:1;fill-rule:evenodd;stroke:#000000;stroke-width:0.305141;stroke-linecap:round;stroke-linejoin:round;paint-order:stroke fill markers"
       d="m 293.27119,151.00141 c -5.3229,-1.73789 -9.69736,-8.59803 -11.25727,-17.65395 -0.55782,-3.23837 -0.39828,-11.17587 0.28668,-14.2632 2.18797,-9.8619 7.49732,-16.2692 13.45895,-16.2422 5.42272,0.0246 9.98546,4.53646 12.61512,12.47456 1.42457,4.3003 1.88214,7.85403 1.69789,13.18673 -0.37026,10.71589 -4.22548,18.85159 -10.40354,21.95465 -1.76923,0.88863 -4.60322,1.12934 -6.39783,0.54341 z m 7.21898,-23.37909 c 2.06518,-1.39172 3.06964,-4.0535 3.06964,-8.13439 0,-4.08088 -1.00446,-6.74266 -3.06964,-8.13438 -2.31959,-1.56318 -4.97483,0.14097 -6.14855,3.94616 -0.62409,2.02332 -0.62409,6.35313 0,8.37645 0.84101,2.72654 2.60027,4.55808 4.37822,4.55808 0.47427,0 1.27092,-0.27537 1.77033,-0.61192 z"
       id="path15159"
       transform="scale(0.26458333)" />
    <path
       style="fill:#a1d77f;fill-opacity:1;fill-rule:evenodd;stroke:none;stroke-width:0.305141;stroke-linecap:round;stroke-linejoin:round;paint-order:stroke fill markers"
       d="m 338.54915,134.15259 c -2.06303,-0.64182 -4.44043,-3.98333 -4.44043,-6.24118 0,-1.56988 0.88423,-3.06494 2.22384,-3.76007 2.50778,-1.30129 5.45671,-0.46281 7.12432,2.0257 2.01192,3.00232 1.81299,5.7776 -0.54005,7.5344 -0.81078,0.60534 -3.09752,0.83631 -4.36768,0.44115 z"
       id="path15397"
       transform="scale(0.26458333)" />
    <path
       style="fill:#a1d77f;fill-opacity:1;fill-rule:evenodd;stroke:none;stroke-width:0.305141;stroke-linecap:round;stroke-linejoin:round;paint-order:stroke fill markers"
       d="m 351.63713,146.38846 c -1.00214,-0.84324 -1.92168,-3.20264 -1.91372,-4.91031 0.0159,-3.40044 2.87549,-5.88525 5.50745,-4.78555 1.3328,0.55688 2.35263,2.75636 2.37488,5.12194 0.0128,1.36338 -0.12321,1.9138 -0.72806,2.9459 -1.34333,2.29222 -3.61318,2.99737 -5.24055,1.62802 z"
       id="path15399"
       transform="scale(0.26458333)" />
    <path
       style="fill:#a1d77f;fill-opacity:1;fill-rule:evenodd;stroke:none;stroke-width:0.305141;stroke-linecap:round;stroke-linejoin:round;paint-order:stroke fill markers"
       d=""
       id="path15401"
       transform="scale(0.26458333)" />
    <path
       style="fill:#a1d77f;fill-opacity:1;fill-rule:evenodd;stroke:none;stroke-width:0.305141;stroke-linecap:round;stroke-linejoin:round;paint-order:stroke fill markers"
       d=""
       id="path15403"
       transform="scale(0.26458333)" />
    <path
       style="fill:#a1d77f;fill-opacity:1;fill-rule:evenodd;stroke:none;stroke-width:0.305141;stroke-linecap:round;stroke-linejoin:round;paint-order:stroke fill markers"
       d="m 245.56924,247.2681 c -3.09709,-0.10209 -8.78133,-0.55066 -13.18674,-1.04065 -19.68387,-2.1893 -37.20444,-6.50951 -49.2484,-12.14363 -11.10458,-5.19468 -17.01347,-9.1973 -25.24108,-17.09806 -6.26835,-6.01933 -8.30442,-7.56821 -19.17828,-14.58925 -8.15026,-5.26247 -13.80239,-11.70806 -15.97548,-18.21816 -0.96915,-2.9034 -1.3354,-7.48453 -1.14847,-14.36554 0.28528,-10.50114 1.62544,-14.72594 6.10521,-19.24641 2.29326,-2.31408 5.8667,-4.76837 10.76468,-7.39333 5.95405,-3.19093 7.11708,-4.18627 15.8641,-13.57685 9.72268,-10.43801 12.54739,-12.99547 19.39022,-17.55568 7.26376,-4.84071 18.62212,-9.62529 28.66096,-12.073092 3.48481,-0.84971 3.36396,-0.909228 3.36396,1.656872 0,1.20208 -0.20578,4.25992 -0.45729,6.7952 -0.62669,6.3172 -0.61702,17.22357 0.02,22.50589 1.96636,16.30651 7.31525,29.76282 14.80985,37.25742 6.51124,6.51125 13.9658,7.67693 21.36008,3.34011 2.2334,-1.30991 6.38806,-5.56191 8.37635,-8.57261 4.04918,-6.13135 7.05773,-13.94505 8.91127,-23.14406 1.49606,-7.42488 1.72405,-10.06416 1.7319,-20.04922 0.008,-9.73097 -0.23685,-13.34375 -1.35553,-20.029859 -0.35732,-2.135564 -0.64967,-3.982379 -0.64967,-4.104034 0,-0.121655 2.54316,-0.221191 5.65146,-0.221191 3.1083,0 5.65143,0.09083 5.65141,0.201838 -3e-5,0.11101 -0.17224,1.110107 -0.38269,2.220215 -0.9926,5.235771 -1.58887,19.628251 -1.22105,29.473021 0.2441,6.53309 1.02014,11.38729 2.82046,17.64209 4.14913,14.4152 11.45429,24.60999 19.66139,27.43866 6.38401,2.20032 12.16393,0.54585 17.89232,-5.12159 5.77767,-5.7162 9.91198,-14.35565 12.87828,-26.9117 2.15093,-9.10467 2.82497,-18.3016 2.15972,-29.4683 -0.15627,-2.62309 -0.23558,-4.81779 -0.17624,-4.87713 0.12494,-0.12494 3.00214,1.02196 8.53387,3.40176 13.99977,6.02282 20.3085,10.14284 25.633,16.74008 1.1084,1.37335 3.60431,4.79301 5.54645,7.59923 5.71184,8.25309 5.79669,8.33087 15.15988,13.89491 9.07191,5.39094 12.6787,8.36266 15.84521,13.05524 1.90796,2.82746 5.00821,9.26461 5.22655,10.85198 0.24322,1.76846 -0.67842,6.75379 -1.89443,10.24726 -3.7506,10.77527 -12.35866,21.23368 -22.48724,27.32104 -3.6845,2.21442 -6.96575,4.90654 -11.27361,9.24948 -6.48298,6.53577 -11.50669,10.10168 -20.31834,14.42226 -5.17872,2.53927 -8.73568,4.03141 -14.45283,6.06296 l -3.95727,1.40618 -1.04993,-0.83156 c -2.8517,-2.25858 -5.14952,-1.7261 -8.88601,2.05921 l -2.01988,2.04628 -4.95598,1.00215 c -7.78312,1.57384 -13.9537,2.13069 -29.40073,2.65322 -7.0439,0.23827 -26.93055,0.29075 -33.10138,0.0874 z m 22.87494,-28.61566 c 11.91043,-0.72882 20.48726,-2.01663 31.45296,-4.72267 19.88469,-4.907 39.91307,-13.04898 58.81345,-23.90896 l 5.89824,-3.38907 2.68864,1.75484 c 3.5085,2.28995 5.56161,2.94256 9.19717,2.92345 3.94614,-0.0207 7.19619,-1.25474 10.1422,-3.85087 3.08912,-2.72223 4.57419,-6.2388 4.55409,-10.78387 -0.0219,-4.95032 -0.89207,-7.11682 -4.17049,-10.38324 -4.8211,-4.80342 -10.56954,-5.73794 -16.85005,-2.7393 -4.03268,1.92541 -6.94533,5.48063 -7.93745,9.68854 -0.53251,2.25858 -0.50017,3.88588 0.13728,6.90609 0.69805,3.30738 0.68544,4.16867 -0.0715,4.88183 -0.94403,0.88944 -5.57089,3.42692 -13.9268,7.63778 -13.3196,6.71225 -20.3238,9.84884 -29.06463,13.01562 -22.85698,8.28101 -42.82552,11.52215 -66.42188,10.78107 -21.23281,-0.66685 -41.17504,-5.17981 -62.48515,-14.14049 -5.92269,-2.49043 -17.58311,-8.28944 -25.27208,-12.56842 -3.61264,-2.01047 -6.61996,-3.70691 -6.68292,-3.76988 -0.063,-0.063 0.4857,-0.88153 1.21927,-1.81903 2.64379,-3.37881 3.6312,-6.25359 3.63581,-10.58541 0.005,-4.60736 -0.94899,-6.96295 -4.07853,-10.07175 -4.01345,-3.98687 -8.45375,-5.36309 -13.48074,-4.17822 -6.82384,1.60838 -11.56702,7.52128 -11.58228,14.43856 -0.005,2.4128 0.41149,4.25521 1.50005,6.63054 1.12621,2.45748 3.96945,5.3916 6.56948,6.77945 l 1.74926,0.93373 6.05513,0.0101 c 4.88292,0.008 6.26502,0.0929 7.13931,0.438 1.58702,0.62635 4.92485,2.33262 9.17069,4.68799 19.44226,10.78552 39.78473,18.50286 58.77364,22.297 7.6958,1.53768 18.38282,2.89354 25.16243,3.19235 4.68313,0.20641 14.11865,0.16186 18.1654,-0.0858 z m 1.64942,-26.8806 c 0.58639,-0.47483 0.63855,-0.7352 0.71433,-3.5658 0.11593,-4.32973 -0.67213,-6.99333 -1.57173,-5.31242 -0.17649,0.32977 -0.42171,1.95051 -0.54494,3.60164 -0.12323,1.65113 -0.35343,3.34232 -0.51154,3.75819 -0.45271,1.19071 -0.12868,1.77475 1.10928,1.99941 0.0946,0.0172 0.45668,-0.19929 0.8046,-0.48102 z m -25.77424,-6.44961 c 0.61289,-1.04942 0.73713,-4.60374 0.1842,-5.26997 -0.51378,-0.61907 -1.55231,-0.51757 -1.93213,0.18883 -0.53207,0.98955 -0.45078,4.53679 0.12407,5.41413 0.58355,0.89061 0.95355,0.81473 1.62386,-0.33299 z m 108.22387,-37.71157 c -0.099,-0.16023 0.22269,-0.26912 0.79512,-0.26912 1.76898,0 2.80815,-0.88098 3.91275,-3.31714 1.15156,-2.53969 1.27706,-3.79052 0.54993,-5.48078 -0.87021,-2.02285 -1.81971,-2.81784 -3.41552,-2.85971 -1.98413,-0.052 -2.68693,0.22676 -3.02641,1.20061 -0.16281,0.46702 -0.29601,0.88796 -0.29601,0.93542 0,0.0475 0.44076,-0.21282 0.97946,-0.5784 2.63899,-1.79086 5.18557,0.24655 5.29742,4.23825 l 0.0474,1.69044 -3.7009,0.13456 -3.7009,0.13456 5.4e-4,-1.62416 c 2.7e-4,-0.98476 0.25714,-2.41501 0.65235,-3.63307 l 0.65182,-2.00893 -0.88777,1.01566 c -0.48828,0.55861 -1.04035,1.56063 -1.22684,2.2267 -0.78342,2.79808 0.47136,6.92515 2.42148,7.96447 1.07977,0.57547 1.17332,0.59827 0.94611,0.23064 z m 3.23653,-0.48626 c -0.0829,-0.0829 -0.30001,-1.7e-4 -0.48257,0.18375 -0.2638,0.26578 -0.23289,0.29669 0.15066,0.15065 0.2654,-0.10106 0.41476,-0.25154 0.33191,-0.3344 z m 1.74214,-1.71359 c 0,-0.48573 -0.42956,-0.17319 -0.89904,0.65413 l -0.49535,0.87293 0.69719,-0.65243 c 0.38346,-0.35883 0.6972,-0.75242 0.6972,-0.87463 z m 0.40367,-0.76044 c 0.0915,-0.14801 -0.0225,-0.26912 -0.25323,-0.26912 -0.23076,0 -0.41956,0.12111 -0.41956,0.26912 0,0.14802 0.11395,0.26912 0.25323,0.26912 0.13928,0 0.32808,-0.1211 0.41956,-0.26912 z m 0.40368,-1.07647 c 0,-0.29602 -0.0464,-0.53823 -0.10318,-0.53823 -0.0567,0 -0.1665,0.24221 -0.24392,0.53823 -0.0774,0.29603 -0.031,0.53824 0.10317,0.53824 0.13416,0 0.24393,-0.24221 0.24393,-0.53824 z m -14.80902,-9.24757 c 4.15713,-2.75106 1.75491,-10.42544 -3.6255,-11.58235 -0.44404,-0.0955 -1.46275,-0.0491 -2.26379,0.10302 -3.76586,0.71522 -5.33131,4.21079 -3.56131,7.9522 1.43153,3.02593 3.68077,4.49445 6.66836,4.35375 1.26998,-0.0598 1.91156,-0.25044 2.78224,-0.82662 z"
       id="path15405"
       transform="scale(0.26458333)" />
    <path
       style="fill:#a1d77f;fill-opacity:1;fill-rule:evenodd;stroke:none;stroke-width:0.305141;stroke-linecap:round;stroke-linejoin:round;paint-order:stroke fill markers"
       d="m 243.4163,247.16306 c -17.31954,-0.86683 -38.23189,-4.74672 -51.67046,-9.58647 -3.6433,-1.3121 -8.29969,-3.22652 -8.76953,-3.60549 -0.1608,-0.12969 -0.82649,-0.42426 -1.47931,-0.65459 -1.50863,-0.53227 -7.47623,-3.79057 -10.46806,-5.71553 -4.32275,-2.78128 -8.23369,-5.92974 -12.93063,-10.40966 -2.5859,-2.46642 -5.93372,-5.44985 -7.43961,-6.62985 -2.54847,-1.99697 -4.07808,-3.04227 -11.52074,-7.87296 -8.62107,-5.59555 -14.37889,-12.09984 -16.42661,-18.55624 -0.94243,-2.97144 -1.3022,-7.56071 -1.12255,-14.31946 0.28069,-10.56016 1.57782,-14.64907 6.1072,-19.25153 2.26522,-2.30176 5.78342,-4.71771 10.75148,-7.38302 1.84292,-0.98871 3.72001,-2.05353 4.17131,-2.36625 2.57798,-1.7864 5.67453,-4.75348 11.66007,-11.17256 7.21447,-7.73702 10.0646,-10.54634 13.56907,-13.37473 5.46463,-4.41041 13.26754,-8.93572 19.9077,-11.54551 6.054,-2.37941 15.57486,-5.280489 17.32969,-5.280489 0.64358,0 0.65459,0.03965 0.65381,2.354769 -5.4e-4,1.29513 -0.18031,4.2208 -0.39972,6.50149 -0.91262,9.48668 -0.77927,17.87126 0.4114,25.86595 2.52474,16.95233 9.06327,30.63968 17.51652,36.66799 5.08396,3.62555 10.57989,4.24215 16.0281,1.79823 10.09745,-4.52945 18.11991,-20.07983 20.68095,-40.08704 1.17485,-9.17808 0.66109,-25.21259 -1.1037,-34.446974 -0.21216,-1.110108 -0.38576,-2.169756 -0.38578,-2.354774 -4e-5,-0.258439 1.30963,-0.336396 5.65141,-0.336396 3.1083,0 5.65143,0.09083 5.65141,0.201838 -3e-5,0.11101 -0.17322,1.110107 -0.38487,2.220215 -0.61566,3.229131 -0.98719,8.208921 -1.20471,16.147021 -0.28428,10.37457 0.0188,17.95912 0.90854,22.74038 2.1993,11.81772 6.24442,21.56136 11.74779,28.2973 6.35843,7.7825 14.67486,10.26857 21.99289,6.57444 8.7403,-4.41208 15.58632,-16.51056 19.16558,-33.86993 1.57069,-7.61785 2.13963,-16.72532 1.62411,-25.99854 -0.17185,-3.09117 -0.26644,-5.66632 -0.2102,-5.72256 0.28417,-0.28418 14.52345,5.91979 18.75338,8.17074 10.12334,5.38711 13.22426,8.34204 21.82688,20.79929 1.79375,2.59748 3.85961,5.22229 4.97752,6.32425 1.92532,1.89784 2.91453,2.56077 10.69242,7.1656 10.37495,6.1424 14.25728,10.26665 18.46864,19.61952 1.35904,3.0182 1.50108,4.12054 0.9541,7.40362 -1.14814,6.89102 -4.7577,14.61017 -9.7744,20.90274 -4.09257,5.13341 -7.97575,8.58471 -14.33041,12.73662 -5.17887,3.38368 -6.88505,4.79619 -11.82363,9.78849 -6.01476,6.0802 -10.80777,9.43959 -19.7801,13.86375 -5.05388,2.49202 -9.94997,4.5357 -15.50683,6.47271 l -2.85834,0.99636 -1.38087,-0.99207 c -0.81177,-0.58319 -1.82173,-1.05119 -2.45055,-1.13553 -1.62845,-0.21842 -3.73092,0.9403 -6.2095,3.42221 l -2.05236,2.05512 -5.0891,0.99297 c -8.02211,1.56524 -13.80842,2.08187 -29.17508,2.60491 -8.80083,0.29955 -29.0965,0.28782 -35.25432,-0.0204 z m 30.67933,-28.89935 c 14.67757,-1.33648 27.95448,-4.26321 43.73151,-9.64008 13.61685,-4.64068 27.80032,-11.09547 40.8819,-18.60507 l 5.8967,-3.38505 2.55705,1.65647 c 3.40723,2.20722 5.65191,2.97573 8.79362,3.01067 2.89581,0.0322 4.7355,-0.37336 7.27368,-1.60352 2.35951,-1.14356 4.33746,-2.85438 5.75596,-4.9786 1.59536,-2.38908 2.17547,-4.52634 2.17547,-8.01505 0,-4.94662 -0.87383,-7.13 -4.18391,-10.45425 -3.16837,-3.18193 -6.88329,-4.60539 -11.17803,-4.28316 -3.7019,0.27776 -7.10565,1.87349 -9.80654,4.59745 -1.87567,1.89168 -3.17342,4.18843 -3.75089,6.6383 -0.54317,2.30431 -0.51752,3.72033 0.12385,6.83743 0.70267,3.41505 0.69107,4.27547 -0.0673,4.98996 -2.31137,2.17771 -27.44748,14.62172 -37.74365,18.68558 -18.13218,7.15669 -35.65978,11.26631 -53.41385,12.52372 -5.37116,0.3804 -18.60188,0.38092 -23.95728,0.001 -24.12098,-1.71143 -46.32441,-8.11567 -70.50865,-20.33714 -4.22126,-2.13321 -17.87314,-9.56053 -18.23145,-9.91884 -0.0637,-0.0637 0.50509,-0.92609 1.26406,-1.91633 2.69779,-3.51981 3.57866,-6.14583 3.56279,-10.62126 -0.0172,-4.84559 -1.4661,-7.93454 -5.16618,-11.01378 -4.81415,-4.00638 -10.25623,-4.59944 -15.94005,-1.73712 -6.52955,3.28823 -9.64675,11.2814 -7.11147,18.2353 1.29349,3.54783 4.08435,6.66901 7.44161,8.3224 l 1.74643,0.86008 5.92341,0.008 c 4.77599,0.006 6.13298,0.0911 7.00533,0.4372 1.60404,0.6363 5.48712,2.617 9.61589,4.90492 27.07773,15.00492 54.31731,23.39751 81.74386,25.18553 5.24604,0.34201 20.02782,0.11956 25.56611,-0.38473 z m -3.70917,-26.72316 c 0.45655,-0.55049 0.44921,-7.41045 -0.009,-8.4956 -0.68611,-1.62455 -1.61937,0.0956 -1.65449,3.04944 -0.0114,0.96209 -0.18525,2.5345 -0.38624,3.49424 -0.201,0.95974 -0.30926,1.89139 -0.2406,2.07034 0.25976,0.67691 1.69223,0.60286 2.29042,-0.11842 z m -26.08095,-6.31959 c 0.58221,-1.17352 0.70422,-4.55881 0.18677,-5.18229 -0.50393,-0.6072 -1.54449,-0.49755 -1.92085,0.20242 -0.53207,0.98955 -0.45078,4.53679 0.12407,5.41413 0.60433,0.92231 0.98839,0.81872 1.61001,-0.43426 z m 109.76441,-37.88793 c 0.56645,-0.10358 1.02992,-0.0873 1.02992,0.0362 0,0.1235 0.19181,0.15093 0.42624,0.061 0.28974,-0.11118 0.32875,-0.22381 0.12182,-0.3517 -0.21375,-0.13211 -0.1804,-0.29107 0.112,-0.53374 0.34082,-0.28286 0.41641,-0.27966 0.41641,0.0177 0,0.2075 0.31729,0.0353 0.74007,-0.40175 0.49642,-0.51312 0.62932,-0.80644 0.40368,-0.89094 -0.18502,-0.0693 -0.3364,-0.23317 -0.3364,-0.36421 0,-0.13103 0.1694,-0.17324 0.37646,-0.0938 0.20705,0.0795 0.44789,0.0289 0.5352,-0.11241 0.0873,-0.14128 -0.0796,-0.31921 -0.37096,-0.3954 -0.39275,-0.1027 -0.68144,0.10698 -1.11652,0.81095 -0.36335,0.58791 -1.03552,1.14796 -1.76515,1.47071 -1.14473,0.50636 -1.20685,0.50731 -2.17714,0.0331 -1.44006,-0.70382 -2.48417,-2.84132 -2.46389,-5.04412 0.014,-1.52317 0.72697,-3.98256 1.14333,-3.944 0.10104,0.009 0.57808,-0.22344 1.06009,-0.51733 0.48201,-0.29389 0.73389,-0.5348 0.55972,-0.53535 -0.17416,-5.4e-4 -0.35582,-0.18513 -0.40367,-0.41017 -0.0704,-0.33089 -0.28483,-0.27433 -1.12083,0.29555 -2.05106,1.39815 -2.83426,4.5081 -1.91492,7.60384 0.60329,2.03151 2.60631,4.11292 3.46623,3.60189 0.13661,-0.0812 0.71184,-0.23236 1.27831,-0.33594 z m 4.25933,-3.92545 c 0,-0.22202 -0.12111,-0.32883 -0.26912,-0.23735 -0.14802,0.0915 -0.26912,0.34797 -0.26912,0.57 0,0.22202 0.1211,0.32883 0.26912,0.23735 0.14801,-0.0915 0.26912,-0.34798 0.26912,-0.57 z m -0.15703,-2.6594 c -0.003,-2.63827 -1.39945,-4.7059 -3.43629,-5.08801 -0.49875,-0.0936 -1.19614,-0.0544 -1.54976,0.0871 -0.4676,0.18708 -0.5145,0.26188 -0.17198,0.27429 0.25902,0.009 0.47095,0.13816 0.47095,0.28618 0,0.14801 0.24822,0.26911 0.5516,0.26911 1.46209,0 3.21604,2.02773 3.21604,3.71805 0,0.3233 0.1211,0.58782 0.26912,0.58782 0.14801,0 0.26911,0.41672 0.26911,0.92603 0,0.50931 -0.1211,1.00087 -0.26911,1.09235 -0.14802,0.0915 -0.26427,0.37111 -0.25835,0.6214 0.007,0.29578 0.16825,0.17247 0.46066,-0.35228 0.28159,-0.50535 0.44918,-1.41135 0.44801,-2.42205 z m -15.26949,-6.07823 c 1.86326,-0.90199 2.33922,-1.81049 2.37456,-4.53249 0.0224,-1.7263 -0.0928,-2.55901 -0.45774,-3.30861 -1.37928,-2.83301 -4.09229,-4.49314 -6.66934,-4.08105 -0.74406,0.11898 -1.08249,0.30902 -1.08532,0.60945 -0.003,0.34446 -0.0525,0.36024 -0.23341,0.0748 -0.18964,-0.29922 -0.37096,-0.28851 -1.04858,0.0619 -2.46949,1.27702 -3.13926,4.54385 -1.56752,7.64553 0.77593,1.53124 2.69786,3.34021 3.98797,3.7536 1.49895,0.48031 3.43632,0.38833 4.69938,-0.22311 z m -4.67732,-0.77362 c -0.94272,-0.40237 -2.66225,-2.32721 -3.30998,-3.70519 -0.7187,-1.52896 -0.65041,-3.62942 0.15332,-4.7159 2.25668,-3.0506 7.15454,-1.99333 8.87969,1.9168 0.26967,0.61122 0.5881,1.11131 0.70763,1.11131 0.44639,0 0.19582,2.08098 -0.38819,3.22391 -0.86941,1.70147 -1.75527,2.25241 -3.77053,2.34498 -0.9235,0.0424 -1.94587,-0.0367 -2.27194,-0.17591 z m 7.37656,-4.38065 c -0.0644,-0.33476 -0.11949,-0.12424 -0.12247,0.46782 -0.003,0.59205 0.0497,0.86595 0.11704,0.60865 0.0673,-0.2573 0.0698,-0.74171 0.005,-1.07647 z"
       id="path15407"
       transform="scale(0.26458333)" />
    <path
       style="fill:#a1d77f;fill-opacity:1;fill-rule:evenodd;stroke:none;stroke-width:0.305141;stroke-linecap:round;stroke-linejoin:round;paint-order:stroke fill markers"
       d="m 245.70379,247.27445 c -14.91552,-0.5795 -33.20482,-3.46318 -46.74178,-7.36981 -5.44289,-1.57076 -14.98042,-5.09462 -15.94336,-5.89063 -0.15852,-0.13104 -0.93245,-0.48276 -1.71983,-0.78159 -1.96018,-0.74394 -7.37002,-3.75583 -10.94778,-6.0951 -4.34783,-2.84278 -7.3452,-5.25907 -11.85482,-9.55664 -6.68882,-6.37429 -10.07716,-9.00493 -18.00835,-13.9813 -7.9855,-5.01045 -13.71082,-10.71154 -16.63349,-16.56309 -1.90014,-3.80432 -2.49957,-8.32527 -2.26582,-17.08892 0.16658,-6.24549 0.61809,-9.70396 1.63126,-12.49524 1.99401,-5.49342 6.14793,-9.38624 15.24086,-14.28288 5.79736,-3.12194 7.51359,-4.61495 17.05473,-14.83646 3.33437,-3.57215 7.18873,-7.53423 8.56524,-8.80464 7.3203,-6.756 16.08115,-12.02579 26.18851,-15.7528 5.07894,-1.87282 11.99033,-3.944275 14.08886,-4.222655 l 1.3819,-0.183315 v 2.31774 c 0,1.27476 -0.19928,4.34821 -0.44285,6.82988 -0.5355,5.45617 -0.60822,16.64333 -0.1369,21.06282 1.75402,16.4475 7.01531,30.19769 14.55011,38.02625 2.78507,2.89366 5.2981,4.60473 8.26465,5.62726 4.03921,1.39226 8.60565,0.95625 12.48108,-1.1917 9.66328,-5.35586 17.00997,-20.2311 19.50927,-39.50152 1.17749,-9.07881 0.66428,-25.26447 -1.09224,-34.446974 -0.21235,-1.110108 -0.38612,-2.169756 -0.38614,-2.354774 -4e-5,-0.258439 1.30963,-0.336396 5.65141,-0.336396 4.34526,0 5.64993,0.07775 5.64487,0.336396 -0.004,0.185018 -0.13103,0.876451 -0.28314,1.536518 -0.7555,3.27846 -1.10863,8.92864 -1.24833,19.97371 -0.15717,12.42571 -0.009,15.10443 1.15509,20.94297 3.09054,15.49506 9.74112,27.5727 17.90452,32.51507 2.74828,1.6639 4.59829,2.24974 7.59877,2.4063 3.16848,0.16533 4.95482,-0.17293 7.63224,-1.44524 8.97279,-4.26384 16.02117,-16.73925 19.59762,-34.68715 0.38343,-1.92419 0.8083,-4.7701 0.94416,-6.32425 0.13586,-1.55415 0.37921,-4.09731 0.54078,-5.65146 0.28976,-2.78738 0.18572,-12.26786 -0.18567,-16.91865 l -0.17983,-2.25179 0.64784,0.19947 c 1.54751,0.47647 12.29895,5.17814 15.9875,6.99143 11.27163,5.54114 15.16677,8.98437 22.98932,20.32217 5.15866,7.47682 6.79947,9.15861 11.86133,12.15748 1.11011,0.65767 3.61743,2.14394 5.57183,3.30281 6.79185,4.02727 11.02803,7.67863 13.93471,12.01095 1.84875,2.7555 4.64633,8.4534 5.01056,10.20513 0.67798,3.2606 -1.21181,10.47519 -4.36799,16.67555 -4.29844,8.44435 -10.41621,15.13407 -19.07264,20.85571 -5.68434,3.75718 -7.80327,5.48849 -12.51394,10.22476 -5.65438,5.6851 -10.11048,8.93713 -17.70456,12.92068 -7.05987,3.70332 -20.08317,8.83952 -20.90806,8.24584 -1.46075,-1.05131 -3.21956,-1.90772 -3.9223,-1.90989 -1.3952,-0.004 -3.5554,1.30502 -5.73539,3.47624 l -2.07013,2.0618 -5.10544,1.00292 c -7.94527,1.56079 -13.77564,2.08128 -29.19141,2.60599 -6.77983,0.23076 -27.87115,0.28899 -32.96683,0.091 z m 22.33671,-28.62234 c 16.8445,-0.91875 31.55079,-3.85814 49.11385,-9.81654 14.87913,-5.04785 29.1159,-11.57184 43.28771,-19.83657 l 4.13118,-2.40924 1.81909,1.20961 c 4.04657,2.69079 6.5003,3.52412 10.23687,3.47662 6.73722,-0.0857 12.834,-4.73439 14.24692,-10.86314 0.4171,-1.80933 0.34358,-6.36131 -0.13227,-8.18873 -0.58609,-2.25068 -1.52031,-3.72896 -3.75533,-5.94223 -3.93835,-3.90004 -8.53492,-5.19676 -13.72028,-3.87057 -5.95373,1.52271 -10.39744,6.27307 -11.22305,11.99753 -0.27909,1.93512 -0.24912,2.51616 0.27275,5.28801 0.74353,3.94919 0.74113,4.61597 -0.0192,5.33235 -2.40572,2.2666 -28.87626,15.29773 -39.08924,19.24317 -17.62333,6.80818 -34.72124,10.73755 -52.06827,11.96613 -5.37115,0.3804 -18.60187,0.38092 -23.95728,0.001 -24.04747,-1.70622 -46.30126,-8.10689 -70.23953,-20.20242 -4.97875,-2.51566 -17.90564,-9.50885 -18.394,-9.95078 -0.12573,-0.11378 0.44476,-1.10152 1.26776,-2.19498 2.75312,-3.65785 3.55198,-6.36522 3.33874,-11.31513 -0.0951,-2.20714 -0.28732,-3.4392 -0.70637,-4.52695 -1.19889,-3.11205 -5.34613,-7.00969 -8.88343,-8.34877 -5.73718,-2.17188 -13.30274,0.483 -16.9528,5.94901 -1.75674,2.63075 -2.32834,4.69759 -2.30498,8.33469 0.0167,2.60553 0.12483,3.37205 0.68368,4.84816 1.38543,3.65933 4.16545,6.77868 7.50443,8.4204 l 1.74926,0.86008 5.38234,-0.0668 c 4.25904,-0.0529 5.68729,0.0219 6.84351,0.35796 1.72161,0.50044 4.61769,1.92741 11.01578,5.42777 33.81427,18.49958 66.86485,26.65781 100.55218,24.8204 z m 2.3633,-27.27628 c 0.42665,-0.74419 0.4132,-7.28584 -0.0171,-8.30387 -0.3336,-0.78929 -0.95952,-0.78155 -1.26747,0.0157 -0.0956,0.24758 -0.2846,1.78228 -0.41992,3.41044 -0.13533,1.62815 -0.36274,3.3608 -0.50536,3.85033 -0.30321,1.04074 -0.15053,1.59769 0.47495,1.73246 0.74465,0.16043 1.38876,-0.10132 1.73487,-0.70503 z m -26.11329,-6.10482 c 0.58149,-1.14421 0.65149,-4.47889 0.10957,-5.22 -0.61596,-0.84238 -1.72268,-0.35805 -1.97668,0.86504 -0.51273,2.46898 0.12971,5.67773 1.07733,5.38086 0.17559,-0.055 0.53099,-0.51667 0.78978,-1.0259 z m 109.77941,-37.93798 c 0.56645,-0.10358 1.02992,-0.0873 1.02992,0.0362 0,0.1235 0.19181,0.15093 0.42624,0.061 0.28974,-0.11118 0.32875,-0.22381 0.12182,-0.3517 -0.21375,-0.13211 -0.1804,-0.29107 0.112,-0.53374 0.34082,-0.28286 0.41641,-0.27966 0.41641,0.0177 0,0.2075 0.31729,0.0353 0.74007,-0.40175 0.49642,-0.51312 0.62932,-0.80644 0.40368,-0.89094 -0.18502,-0.0693 -0.3364,-0.24412 -0.3364,-0.38854 0,-0.14441 0.1211,-0.18772 0.26912,-0.0962 0.14801,0.0915 0.41245,0.0777 0.58765,-0.0305 0.21789,-0.13466 0.15412,-0.25469 -0.20184,-0.37988 -0.39872,-0.14023 -0.69397,0.0528 -1.26298,0.82557 -0.43027,0.58437 -1.20598,1.19399 -1.84427,1.44938 -1.03253,0.41314 -1.16324,0.41069 -2.08312,-0.0391 -2.08015,-1.01706 -3.06627,-4.72054 -2.02822,-7.61721 0.34367,-0.95901 0.65956,-1.32549 1.49114,-1.72999 0.95203,-0.46307 1.01444,-0.55387 0.63886,-0.92945 -1.05341,-1.05341 -3.31828,1.79298 -3.56157,4.47602 -0.16761,1.84841 0.40043,4.15758 1.30591,5.3087 0.71502,0.90901 2.11324,1.79376 2.47825,1.56817 0.14707,-0.0909 0.73086,-0.25001 1.29733,-0.35359 z m 4.25933,-3.92545 c 0,-0.22202 -0.12111,-0.32883 -0.26912,-0.23735 -0.14802,0.0915 -0.26912,0.34797 -0.26912,0.57 0,0.22202 0.1211,0.32883 0.26912,0.23735 0.14801,-0.0915 0.26912,-0.34798 0.26912,-0.57 z m -0.15703,-2.6594 c -0.002,-1.71208 -0.63464,-3.3185 -1.6789,-4.26288 -0.68487,-0.61937 -2.5186,-1.04911 -3.27796,-0.76821 l -0.57263,0.21183 0.62305,0.30303 c 0.34267,0.16667 0.96639,0.37791 1.38604,0.46942 1.08353,0.23627 2.00759,1.35227 2.48799,3.00477 0.49472,1.70177 0.52843,2.0983 0.28309,3.32953 l -0.18768,0.94191 0.46943,-0.80735 c 0.30547,-0.52537 0.46878,-1.37131 0.46757,-2.42205 z m -15.90592,-5.843 c 1.62079,-0.4856 2.77239,-1.77968 3.13406,-3.52179 0.66437,-3.20026 -1.03917,-6.57884 -4.12502,-8.18105 -0.97109,-0.5042 -3.98623,-0.60707 -4.14149,-0.1413 -0.0548,0.16437 -0.24979,0.24123 -0.43332,0.1708 -0.59231,-0.22729 -2.17058,1.07059 -2.81318,2.3134 -1.51366,2.92746 0.41115,7.45071 3.85249,9.05326 1.50209,0.69949 2.89939,0.79416 4.52646,0.30668 z"
       id="path15409"
       transform="scale(0.26458333)" />
    <path
       style="fill:#a1d77f;fill-opacity:1;fill-rule:evenodd;stroke:none;stroke-width:0.305141;stroke-linecap:round;stroke-linejoin:round;paint-order:stroke fill markers"
       d="m 245.56924,247.27166 c -7.02214,-0.25899 -18.44261,-1.50186 -26.7847,-2.91492 -18.80703,-3.18571 -33.52333,-8.16299 -45.54573,-15.40428 -6.02145,-3.62682 -9.50987,-6.37066 -16.68303,-13.12212 -4.86261,-4.57674 -8.08211,-7.07332 -14.14547,-10.96916 -6.15115,-3.95225 -9.2203,-6.28264 -12.20444,-9.26679 -5.43756,-5.43755 -7.8174,-10.13815 -8.46296,-16.71582 -0.38788,-3.9522 -0.15131,-13.82512 0.4107,-17.13927 1.38416,-8.16238 5.15912,-12.50353 16.03795,-18.4434 6.05014,-3.30338 7.85597,-4.85803 17.0263,-14.65799 3.46262,-3.70036 7.25474,-7.62542 8.42693,-8.72235 7.40376,-6.92842 16.34921,-12.35133 26.62437,-16.14021 5.07894,-1.87282 11.99033,-3.944275 14.08886,-4.222655 l 1.3819,-0.183315 -0.005,2.524 c -0.003,1.3882 -0.12134,3.61393 -0.26382,4.94606 -2.05433,19.20826 0.60571,37.50299 7.39603,50.86698 2.2545,4.43709 4.2655,7.25551 7.38999,10.35713 4.26902,4.23776 7.8301,5.92057 12.52884,5.92057 3.92404,0 7.27388,-1.26323 10.73649,-4.04876 8.32054,-6.69353 14.5877,-21.28539 16.58128,-38.60628 1.0005,-8.6926 0.42515,-24.27273 -1.22099,-33.063835 -0.21785,-1.163462 -0.3961,-2.283662 -0.3961,-2.489332 0,-0.307376 1.01142,-0.373947 5.68141,-0.373947 h 5.6814 l -0.16252,0.87463 c -1.15662,6.224304 -1.61314,14.776344 -1.44413,27.052634 0.1096,7.96076 0.21315,9.81417 0.69883,12.50902 2.71554,15.06733 8.51506,27.14507 15.88264,33.07624 3.6949,2.97453 7.05223,4.26228 11.11228,4.26228 14.16383,0 25.81483,-20.48746 27.72276,-48.7485 0.24777,-3.67002 0.24795,-6.29162 8.1e-4,-11.54789 -0.17585,-3.74001 -0.2706,-6.84914 -0.21057,-6.90918 0.28994,-0.28993 14.29069,5.83254 19.00157,8.30931 9.46149,4.97443 13.41935,8.78355 21.79848,20.97929 2.762,4.02006 5.40874,6.87747 7.93895,8.57087 1.0361,0.69343 4.07845,2.56357 6.76077,4.15587 10.53938,6.25646 14.11637,9.80626 18.30778,18.1687 2.27568,4.54034 2.4597,5.43706 1.86956,9.11028 -1.65879,10.32479 -8.27088,21.31871 -17.45737,29.02632 -1.33157,1.11721 -4.25167,3.24407 -6.48912,4.72635 -5.33108,3.53177 -6.96116,4.87415 -11.83635,9.74733 -2.24009,2.23917 -5.3803,5.05172 -6.97824,6.25012 -6.93279,5.19934 -17.00555,10.25396 -28.07978,14.09072 l -3.26608,1.13156 -1.39333,-0.95844 c -2.94527,-2.02599 -4.84589,-1.47262 -8.92316,2.59799 l -1.72041,1.7176 -5.06471,0.99201 c -7.85883,1.53928 -14.25062,2.10751 -29.24771,2.60011 -7.04263,0.23133 -27.69112,0.28402 -33.10139,0.0845 z m 22.20215,-28.61849 c 13.97709,-0.75933 25.34595,-2.68169 39.10761,-6.61269 17.75946,-5.07298 35.24902,-12.53892 52.22183,-22.29246 l 5.44417,-3.12853 2.57117,1.61225 c 3.73136,2.33975 5.01808,2.77555 8.60755,2.91532 2.29269,0.0893 3.36479,0.01 4.56349,-0.3388 3.4756,-1.01038 6.46873,-3.05065 8.35661,-5.69627 1.73833,-2.43607 2.31933,-4.24031 2.45671,-7.62935 0.21118,-5.2096 -0.70637,-7.75265 -3.97926,-11.02848 -3.35369,-3.35671 -6.90949,-4.79242 -11.10083,-4.48216 -6.13326,0.45401 -11.47861,4.45178 -13.39325,10.01678 -0.84671,2.46101 -0.92603,4.6723 -0.28395,7.91591 0.74343,3.75557 0.72647,4.43388 -0.12955,5.18229 -1.28319,1.12187 -5.59288,3.45367 -15.72559,8.50848 -14.9984,7.48212 -22.72796,10.77423 -33.80251,14.39692 -14.0517,4.59657 -27.38271,7.24249 -41.55024,8.24682 -5.31761,0.37696 -19.14345,0.37466 -24.22053,-0.004 -23.45369,-1.74936 -44.19549,-7.57679 -67.4138,-18.93997 -5.3448,-2.61578 -20.28446,-10.61005 -20.95217,-11.21159 -0.12659,-0.11405 0.3879,-1.02379 1.1433,-2.02166 2.61342,-3.45226 3.52729,-6.16787 3.52729,-10.48152 0,-4.56782 -0.89091,-6.87934 -3.78392,-9.81762 -3.34671,-3.39907 -6.17525,-4.68311 -10.34472,-4.69606 -4.22039,-0.0131 -7.59905,1.39207 -10.63196,4.42179 -7.12722,7.11975 -4.95369,19.34953 4.24136,23.86479 l 1.5465,0.75941 5.36798,-0.071 c 4.27629,-0.0566 5.66807,0.0163 6.84352,0.35796 1.703,0.49508 4.4986,1.86745 10.93256,5.36685 34.17132,18.58561 66.91882,26.70444 100.38063,24.88659 z m 2.61442,-27.24372 c 0.4633,-0.81111 0.45161,-7.35566 -0.0147,-8.20807 -0.39557,-0.72318 -0.9917,-0.78766 -1.2439,-0.13456 -0.10003,0.25902 -0.29259,1.80308 -0.42791,3.43124 -0.13533,1.62816 -0.36274,3.36081 -0.50536,3.85034 -0.36275,1.24509 -0.12444,1.66656 0.94231,1.66656 0.65523,0 0.99873,-0.16646 1.24952,-0.60551 z m -26.17697,-5.92577 c 0.49843,-0.79308 0.71449,-4.50535 0.30658,-5.26753 -0.17088,-0.31932 -0.54586,-0.58057 -0.83327,-0.58057 -0.86277,0 -1.36041,1.10222 -1.37533,3.04625 -0.0249,3.24047 0.83255,4.50353 1.90202,2.80185 z m 109.86108,-38.15065 c 0.5871,-0.10736 1.02992,-0.0813 1.02992,0.0605 0,0.13687 0.12308,0.1728 0.27351,0.0798 0.15043,-0.093 0.21231,-0.26805 0.13752,-0.38907 -0.0748,-0.12101 0.0443,-0.36968 0.26473,-0.55259 0.31963,-0.26527 0.40071,-0.26236 0.40071,0.0144 0,0.19081 0.0755,0.27141 0.16781,0.17912 0.0923,-0.0923 0.10145,-0.3407 0.0204,-0.55202 -0.12021,-0.31326 -0.39738,-0.26052 -1.50093,0.28563 -1.35003,0.66812 -1.35612,0.66856 -2.37515,0.17077 -1.40874,-0.68817 -2.50127,-2.8358 -2.50312,-4.92048 -10e-4,-1.59012 0.72366,-4.04973 1.19824,-4.06473 0.34375,-0.0109 1.49426,-0.94319 1.49426,-1.21089 0,-0.1054 -0.16988,-0.0507 -0.3775,0.12165 -0.28958,0.24033 -0.40406,0.23366 -0.49148,-0.0286 -0.2045,-0.61349 -1.44553,0.46722 -2.12782,1.85294 -1.10889,2.25213 -0.82656,5.55541 0.65903,7.71042 0.61807,0.8966 2.0474,1.83481 2.43258,1.59676 0.14706,-0.0909 0.73086,-0.25001 1.29732,-0.3536 z m 3.28018,-1.74075 c 0.0852,-0.22202 0.0376,-0.40367 -0.10577,-0.40367 -0.14337,0 -0.26067,-0.11731 -0.26067,-0.26068 0,-0.14336 0.18166,-0.19096 0.40368,-0.10576 0.22202,0.0852 0.40367,0.0208 0.40367,-0.14301 0,-0.41804 -0.68034,-0.37153 -1.04816,0.0717 -0.31213,0.3761 -0.14406,1.24514 0.24081,1.24514 0.11634,0 0.28124,-0.18166 0.36644,-0.40368 z m 0.97915,-2.1847 c 0,-0.22202 -0.12111,-0.32883 -0.26912,-0.23735 -0.14802,0.0915 -0.26912,0.34797 -0.26912,0.57 0,0.22202 0.1211,0.32883 0.26912,0.23735 0.14801,-0.0915 0.26912,-0.34798 0.26912,-0.57 z m -0.15268,-2.52485 c 0.005,-1.04974 -0.18658,-1.86734 -0.65997,-2.81174 -0.93119,-1.85764 -1.69977,-2.35316 -3.48986,-2.24997 -1.31727,0.0759 -1.38491,0.11008 -0.78932,0.39851 0.35827,0.1735 0.99475,0.39033 1.4144,0.48184 1.0983,0.23949 2.00922,1.35796 2.51095,3.08305 0.45036,1.5485 0.51454,2.538 0.23272,3.58812 -0.11919,0.44411 -0.0379,0.39031 0.30559,-0.20231 0.2861,-0.49358 0.4709,-1.38261 0.47549,-2.2875 z m -15.25611,-6.3402 c 1.10177,-0.54904 1.50691,-0.94483 1.9972,-1.9511 1.51046,-3.10007 0.0852,-7.19141 -3.16976,-9.09893 -0.92941,-0.54467 -1.54524,-0.69443 -2.85567,-0.69443 -0.98156,0 -1.71166,0.1228 -1.76996,0.29771 -0.0546,0.16374 -0.2122,0.22789 -0.35028,0.14255 -0.4045,-0.24999 -2.05154,0.91127 -2.63775,1.85977 -0.80882,1.30869 -0.96057,2.82825 -0.45584,4.56445 1.28865,4.43279 5.58599,6.70187 9.24206,4.87998 z"
       id="path15411"
       transform="scale(0.26458333)" />
    <path
       style="fill:#a1d77f;fill-opacity:1;fill-rule:evenodd;stroke:none;stroke-width:0.305141;stroke-linecap:round;stroke-linejoin:round;paint-order:stroke fill markers"
       d="m 245.031,247.28557 c -21.57405,-1.05902 -44.28723,-5.67199 -59.43355,-12.07074 -11.07702,-4.67964 -18.60524,-9.63141 -28.02946,-18.43673 -5.91319,-5.52485 -9.29845,-8.17591 -15.49828,-12.13696 -5.84078,-3.73165 -8.93214,-6.09344 -11.95165,-9.13101 -4.09329,-4.11775 -6.59027,-8.18491 -7.84598,-12.77971 -0.54387,-1.99009 -0.58913,-2.77377 -0.59841,-10.361 -0.0106,-8.68076 0.2296,-11.12745 1.43715,-14.63723 1.9472,-5.65966 5.90736,-9.41516 15.48442,-14.68422 5.70775,-3.14026 6.91551,-4.22743 20.27233,-18.24825 2.71297,-2.84783 6.16439,-6.21554 7.66983,-7.48379 5.60378,-4.72088 13.45534,-9.43602 20.52003,-12.323 5.67022,-2.31712 16.11488,-5.554209 17.92102,-5.554209 h 0.76147 v 2.274029 c 0,1.25072 -0.17539,4.36911 -0.38975,6.92976 -1.40966,16.83895 0.13462,30.44191 4.88214,43.0049 2.63212,6.96519 5.92665,12.35463 10.03509,16.41614 2.66921,2.63871 4.41527,3.84695 7.33053,5.07256 1.53782,0.64652 2.00425,0.70974 5.18825,0.7032 3.15154,-0.006 3.67904,-0.0787 5.31868,-0.72784 10.84884,-4.2954 19.30434,-20.09166 21.85227,-40.82364 1.13619,-9.24487 0.64329,-24.86273 -1.07375,-34.022585 -0.21809,-1.163462 -0.39653,-2.283662 -0.39653,-2.489332 0,-0.307313 1.00704,-0.373947 5.65146,-0.373947 3.1083,0 5.65129,0.09083 5.65108,0.201838 -2e-4,0.11101 -0.17075,1.170659 -0.37899,2.354773 -0.8425,4.790613 -1.08899,9.698093 -1.09488,21.798473 -0.006,13.23207 0.0858,14.36813 1.72394,21.22257 3.76937,15.77252 10.81205,26.91803 19.49756,30.85623 4.74133,2.14982 10.31109,1.68937 14.87428,-1.22967 7.4611,-4.77281 13.08563,-14.56332 16.61725,-28.92534 2.36025,-9.5984 3.13774,-18.19487 2.61665,-28.93157 -0.17754,-3.65789 -0.26957,-6.70392 -0.20453,-6.76896 0.29486,-0.29486 14.1485,5.74909 19.01067,8.29383 9.1815,4.80536 13.08111,8.46607 20.73875,19.46825 5.30935,7.62827 6.68832,8.89774 14.91925,13.73453 11.39774,6.69772 14.84315,10.05491 19.16331,18.67251 2.25082,4.48985 2.4445,5.44205 1.85422,9.11609 -0.91363,5.68677 -3.65014,12.32237 -7.31829,17.74577 -4.39846,6.50318 -8.96986,10.90896 -16.61791,16.01588 -5.31459,3.54877 -6.20221,4.27977 -11.47908,9.45369 -2.44224,2.39458 -5.74785,5.33477 -7.34579,6.53374 -6.92649,5.1971 -17.00317,10.25418 -28.07736,14.09091 l -3.26367,1.13072 -1.55765,-1.03385 c -1.27185,-0.84417 -1.78849,-1.03042 -2.81573,-1.01512 -1.60737,0.0239 -2.73971,0.71206 -5.51542,3.35162 -2.13954,2.0346 -2.16716,2.05025 -4.44043,2.5155 -8.22548,1.68346 -13.14833,2.27076 -24.08597,2.87345 -4.98689,0.2748 -37.55913,0.55504 -41.57857,0.35774 z m 22.20215,-28.63082 c 19.40969,-0.95369 36.96652,-4.80491 57.78671,-12.67594 11.75061,-4.44229 22.32635,-9.50701 34.84801,-16.6887 2.54841,-1.46162 4.69459,-2.65749 4.76928,-2.65749 0.0747,0 1.22913,0.71792 2.56542,1.59537 3.33967,2.19294 4.91388,2.75082 8.21863,2.91258 3.34802,0.16388 5.17284,-0.197 7.90107,-1.56253 3.84935,-1.92665 6.8479,-5.74603 7.57045,-9.6428 0.35564,-1.91793 0.34148,-5.30812 -0.0296,-7.08162 -0.862,-4.12001 -5.05387,-8.62387 -9.47166,-10.1766 -5.75212,-2.02171 -12.75507,0.24347 -16.61076,5.37293 -1.48355,1.97367 -2.29731,3.89301 -2.73576,6.45257 -0.25213,1.47193 -0.22302,2.22115 0.17334,4.46027 0.84722,4.78613 0.85273,5.388 0.0561,6.12627 -1.48503,1.37628 -17.34529,9.55898 -28.17259,14.53494 -20.64684,9.48878 -41.67599,15.06111 -62.69739,16.61363 -4.99924,0.36922 -19.46729,0.37418 -24.35508,0.008 -15.57342,-1.16558 -28.9636,-3.90098 -43.5951,-8.90577 -8.73393,-2.98749 -15.99652,-6.07289 -25.70252,-10.91932 -5.872,-2.93202 -18.62293,-9.78647 -19.18982,-10.31577 -0.11939,-0.11147 0.51558,-1.21914 1.41104,-2.46148 2.44571,-3.39312 3.24646,-5.88104 3.24646,-10.08668 0,-4.38234 -1.05496,-7.01684 -3.9819,-9.94378 -3.91268,-3.91268 -8.18319,-5.33582 -12.97247,-4.32305 -8.05322,1.70297 -13.19087,9.11393 -11.84595,17.08754 0.68984,4.08984 3.61043,8.27594 7.29354,10.4539 2.0311,1.20106 3.45178,1.40347 8.58917,1.22372 6.12861,-0.21443 6.41899,-0.11592 17.62716,5.98011 33.56589,18.25622 65.86025,26.2626 99.30416,24.61935 z m 3.14138,-27.2453 c 0.44542,-0.8061 0.43529,-7.37506 -0.0127,-8.21207 -0.37007,-0.69148 -0.98054,-0.78967 -1.20895,-0.19446 -0.0859,0.22388 -0.22494,1.22298 -0.30895,2.22022 -0.084,0.99723 -0.28315,2.74827 -0.44253,3.89119 -0.15939,1.14293 -0.21878,2.26313 -0.13197,2.48934 0.25246,0.65792 1.70843,0.52358 2.10506,-0.19422 z M 244.3373,184.9917 c 0.48023,-1.20021 0.56628,-4.05028 0.146,-4.83558 -0.38638,-0.72195 -1.23848,-0.65061 -1.7614,0.14746 -0.33938,0.51796 -0.41633,1.17365 -0.3426,2.91919 0.13603,3.22037 1.0477,4.044 1.958,1.76893 z m 108.34049,-37.75333 c 0,-0.20476 -0.24237,-0.43567 -0.53861,-0.51314 -0.29623,-0.0775 -0.47074,-0.031 -0.38779,0.10318 0.0829,0.13421 0.008,0.24401 -0.16557,0.24401 -0.18429,0 -0.2574,-0.22557 -0.17511,-0.54025 0.0908,-0.34723 -0.0463,-0.6716 -0.38362,-0.9079 -0.2887,-0.20221 -0.50546,-0.47379 -0.4817,-0.6035 0.13392,-0.73107 -0.0251,-0.97077 -0.42421,-0.63952 -0.62268,0.51678 -0.49169,0.96129 0.63112,2.14161 1.03393,1.08688 1.92549,1.41819 1.92549,0.71551 z m 2.81788,-0.17865 c -0.0664,-0.10749 0.0478,-0.33531 0.25376,-0.50627 0.28613,-0.23747 0.40746,-0.22878 0.51402,0.0368 0.0957,0.2386 0.14615,0.24711 0.16073,0.0271 0.0381,-0.57539 -0.42886,-0.61893 -1.5564,-0.14511 -1.35433,0.56912 -1.4202,0.86444 -0.18243,0.81791 0.5121,-0.0192 0.87674,-0.12295 0.81032,-0.23043 z m 1.78662,-1.81642 c -0.16425,-0.0548 -0.29863,-0.20676 -0.29863,-0.33779 0,-0.13104 0.18166,-0.16854 0.40368,-0.0833 0.22202,0.0852 0.40367,0.0208 0.40367,-0.14301 0,-0.41804 -0.68034,-0.37153 -1.04816,0.0717 -0.16869,0.20326 -0.22993,0.56966 -0.13608,0.81422 0.13866,0.36133 0.24591,0.38217 0.57239,0.11122 0.25879,-0.21478 0.29549,-0.36884 0.10313,-0.43296 z m -7.73971,-1.6694 c -0.0888,-0.44404 -0.0464,-0.80735 0.0943,-0.80735 0.14066,0 0.23345,-0.55761 0.2062,-1.23913 -0.0294,-0.73521 0.1468,-1.64549 0.43324,-2.23836 0.65811,-1.36213 0.90978,-2.44308 0.56882,-2.44308 -0.31254,0 -1.24178,1.44025 -1.51819,2.35308 -0.15201,0.50202 -0.10047,0.57474 0.30572,0.43135 0.39954,-0.14106 0.42726,-0.10643 0.15215,0.19007 -0.18502,0.1994 -0.35542,0.97412 -0.37867,1.72159 l -0.0423,1.35904 -0.18456,-1.34558 c -0.1815,-1.32332 -0.18523,-1.32777 -0.22534,-0.26912 -0.0386,1.01949 0.38716,3.09484 0.63494,3.09484 0.0634,0 0.0425,-0.3633 -0.0463,-0.80735 z m 8.61312,-2.01837 c 0.11256,-0.7533 0.0876,-0.91489 -0.083,-0.53824 -0.13412,0.29603 -0.25237,0.39676 -0.26277,0.22385 -0.0104,-0.17291 -0.10005,-0.52581 -0.19921,-0.78422 -0.12292,-0.32032 -0.0801,-0.40791 0.13456,-0.27524 0.4836,0.29888 0.38776,-0.90448 -0.15652,-1.96523 -0.2588,-0.50437 -0.56137,-0.89795 -0.67238,-0.87463 -0.11101,0.0233 -0.44129,-0.19706 -0.73397,-0.48974 -0.29267,-0.29267 -0.71551,-0.46176 -0.93964,-0.37575 -0.23596,0.0906 -0.47723,-0.0253 -0.57313,-0.27522 -0.10022,-0.26118 -0.4793,-0.4316 -0.96006,-0.4316 -1.07424,0 -0.72766,0.45445 0.62421,0.81847 0.60227,0.16218 1.38688,0.60978 1.74359,0.99466 0.74468,0.80353 1.54005,3.27142 1.49084,4.62581 -0.0439,1.20913 0.37957,0.73845 0.58748,-0.65292 z m -5.99845,-4.4499 c 0.72214,-0.38648 0.65043,-0.73061 -0.15225,-0.73061 -0.47843,0 -0.6728,0.14578 -0.6728,0.5046 0,0.5805 0.10761,0.60997 0.82505,0.22601 z m -10.11565,-2.17452 c 4.48627,-1.24549 4.593,-7.9747 0.17637,-11.12003 -0.84736,-0.60345 -1.48933,-0.81756 -2.71773,-0.90641 -0.88457,-0.064 -1.82374,-0.0223 -2.08705,0.0927 -0.26331,0.11498 -0.57995,0.18638 -0.70365,0.15865 -0.46058,-0.10324 -2.05377,1.09819 -2.5753,1.94205 -1.98371,3.20971 0.24567,8.33112 4.24942,9.7619 1.2123,0.43323 2.2789,0.45396 3.65794,0.0711 z"
       id="path15413"
       transform="scale(0.26458333)" />
    <rect
       style="fill:#a1d77f;fill-opacity:1;fill-rule:evenodd;stroke:none;stroke-width:0.3;stroke-linecap:round;stroke-linejoin:round;paint-order:stroke fill markers"
       id="rect15467"
       width="3.8450086"
       height="8.4020557"
       x="87.794365"
       y="31.472107" />
    <rect
       style="fill:#a1d77f;fill-opacity:1;fill-rule:evenodd;stroke:none;stroke-width:0.3;stroke-linecap:round;stroke-linejoin:round;paint-order:stroke fill markers"
       id="rect15469"
       width="3.4177856"
       height="5.2690859"
       x="91.639374"
       y="35.032299" />
    <path
       style="fill:#ececec;fill-opacity:0.628571;fill-rule:evenodd;stroke:none;stroke-width:0.0807352;stroke-linecap:round;stroke-linejoin:round;paint-order:stroke fill markers"
       d="m 91.413601,35.470595 c -0.505757,-0.175201 -0.971867,-0.685531 -1.116689,-1.222629 -0.144803,-0.536994 0.181304,-1.16085 0.702486,-1.343886 0.900009,-0.316082 2.104719,0.746655 1.923609,1.696921 -0.140075,0.734963 -0.800201,1.115275 -1.509406,0.869594 z"
       id="path15230" />
    <path
       style="fill:#ececec;fill-opacity:0.628571;fill-rule:evenodd;stroke:none;stroke-width:0.0628047;stroke-linecap:round;stroke-linejoin:round;paint-order:stroke fill markers"
       d="m 94.134102,37.852819 c -0.153395,-0.43617 -0.127276,-1.057958 0.06258,-1.489655 0.189809,-0.431619 0.642467,-0.614633 0.975095,-0.394241 0.574406,0.380582 0.62993,1.826192 0.08866,2.308267 -0.418637,0.372851 -0.911228,0.187257 -1.126327,-0.424371 z"
       id="path15230-9"
       inkscape:transform-center-x="-0.49662126"
       inkscape:transform-center-y="1.4148759" />
    <rect
       style="fill:#a1d77f;fill-opacity:1;fill-rule:evenodd;stroke:none;stroke-width:0.3;stroke-linecap:round;stroke-linejoin:round;paint-order:stroke fill markers"
       id="rect15547"
       width="3.1329699"
       height="6.8355713"
       x="92.992249"
       y="82.738892" />
    <rect
       style="fill:#a1d77f;fill-opacity:1;fill-rule:evenodd;stroke:none;stroke-width:0.3;stroke-linecap:round;stroke-linejoin:round;paint-order:stroke fill markers"
       id="rect15549"
       width="2.563339"
       height="5.3402901"
       x="94.772346"
       y="84.447784" />
    <rect
       style="fill:#a1d77f;fill-opacity:1;fill-rule:evenodd;stroke:none;stroke-width:0.3;stroke-linecap:round;stroke-linejoin:round;paint-order:stroke fill markers"
       id="rect15551"
       width="3.1329699"
       height="6.6219592"
       x="94.202713"
       y="90.215294" />
    <path
       style="fill:#ececec;fill-opacity:0.628571;fill-rule:evenodd;stroke:none;stroke-width:0.0807352;stroke-linecap:round;stroke-linejoin:round;paint-order:stroke fill markers"
       d="m 95.164803,90.136185 c -0.455288,-0.281409 -0.798715,-0.881204 -0.822769,-1.436966 -0.02405,-0.555654 0.430418,-1.093246 0.978988,-1.15806 0.947311,-0.111928 1.890891,1.188223 1.506651,2.076011 -0.297186,0.686639 -1.024421,0.91363 -1.66287,0.519015 z"
       id="path15230-8"
       inkscape:transform-center-x="0.2136116"
       inkscape:transform-center-y="-1.3528734" />
    <path
       style="fill:#ececec;fill-opacity:0.628571;fill-rule:evenodd;stroke:none;stroke-width:0.0807352;stroke-linecap:round;stroke-linejoin:round;paint-order:stroke fill markers"
       d="m 95.243473,94.747611 c -0.267449,-0.463627 -0.28546,-1.154551 -0.04314,-1.655282 0.242221,-0.500661 0.897288,-0.758501 1.411015,-0.555485 0.88714,0.350579 1.101518,1.942677 0.3423,2.542173 -0.587208,0.463663 -1.335128,0.318734 -1.710171,-0.33141 z"
       id="path15230-8-1"
       inkscape:transform-center-x="-0.45450377"
       inkscape:transform-center-y="-1.2909685" />
    <path
       style="fill:#a1d77f;fill-opacity:1;fill-rule:evenodd;stroke:none;stroke-width:0.516406;stroke-linecap:round;stroke-linejoin:round;paint-order:stroke fill markers"
       d="m 244.42802,389.59973 c -14.39813,-1.33794 -28.36139,-7.82679 -38.57691,-17.92704 -4.78303,-4.72905 -8.87294,-9.97165 -8.87203,-11.3725 3.5e-4,-0.52626 0.30788,-2.69889 0.6834,-4.82808 2.25568,-12.78936 3.67388,-34.40837 3.24885,-49.52511 l -0.28481,-10.12942 4.43829,-4.46414 c 9.51629,-9.57172 22.35695,-16.07208 35.86376,-18.15542 3.3895,-0.5228 6.53476,-0.63887 12.29692,-0.45378 10.95884,0.35202 17.01758,1.8646 26.87105,6.70843 6.22622,3.06072 11.68945,7.00248 16.58395,11.96544 l 3.37614,3.42336 -0.0935,18.35998 c -0.1072,21.04397 0.85152,36.00759 3.06535,47.84391 l 0.40352,2.15743 -3.50962,4.21875 c -6.7491,8.11277 -14.97391,14.01369 -24.83567,17.81845 -9.68697,3.73732 -20.62234,5.29237 -30.65866,4.35974 z"
       id="path17336"
       transform="scale(0.26458333)" />
    <path
       style="fill:#a1d77f;fill-opacity:1;fill-rule:evenodd;stroke:none;stroke-width:0.516406;stroke-linecap:round;stroke-linejoin:round;paint-order:stroke fill markers"
       d=""
       id="path17890"
       transform="scale(0.26458333)" />
    <path
       style="fill:#a1d77f;fill-opacity:1;fill-rule:evenodd;stroke:none;stroke-width:0.516406;stroke-linecap:round;stroke-linejoin:round;paint-order:stroke fill markers"
       d="m 330.27991,246.94687 c -1.45631,-2.98586 -2.58353,-5.47981 -2.50493,-5.5421 0.40389,-0.32007 3.27683,-1.13764 3.43651,-0.97795 0.26815,0.26814 2.01642,11.23093 1.85327,11.62118 -0.0753,0.18024 -1.32853,-2.11527 -2.78485,-5.10113 z"
       id="path17892"
       transform="scale(0.26458333)" />
    <path
       style="fill:#a1d77f;fill-opacity:1;fill-rule:evenodd;stroke:none;stroke-width:0.258203;stroke-linecap:round;stroke-linejoin:round;paint-order:stroke fill markers"
       d=""
       id="path17894"
       transform="scale(0.26458333)" />
    <path
       style="fill:#a1d77f;fill-opacity:1;fill-rule:evenodd;stroke:none;stroke-width:0.0912886;stroke-linecap:round;stroke-linejoin:round;paint-order:stroke fill markers"
       d="m 333.47986,254.96793 c -0.35213,-1.19475 -0.84765,-2.58199 -1.39058,-3.89298 -0.69555,-1.67954 -0.69843,-1.74869 -0.0218,-0.52332 0.65149,1.1798 0.98021,1.65444 1.03402,1.49301 0.1279,-0.38369 -1.30423,-9.61743 -1.76436,-11.37579 -0.0635,-0.2428 -0.11674,-0.30192 -0.27174,-0.30192 -0.53122,0 -3.34356,0.87596 -3.34356,1.04143 0,0.0844 0.37235,0.97572 0.8385,2.00729 0.20745,0.45906 0.36165,0.85018 0.34267,0.86916 -0.019,0.019 -0.15213,-0.17546 -0.29589,-0.4321 -0.14376,-0.25663 -0.5657,-0.91097 -0.93765,-1.4541 l -0.67626,-0.98749 0.22342,-0.0865 c 1.63762,-0.63391 3.50147,-1.19925 3.95378,-1.19925 0.23827,0 0.24389,0.01 0.41539,0.7405 0.6135,2.61319 2.34682,14.57211 2.14179,14.77715 -0.0207,0.0207 -0.1322,-0.28309 -0.24774,-0.67511 z"
       id="path17906"
       transform="scale(0.26458333)" />
    <path
       style="fill:#e9c6af;fill-opacity:1;fill-rule:evenodd;stroke:none;stroke-width:0.138583;stroke-linecap:round;stroke-linejoin:round;paint-order:stroke fill markers"
       d="m 64.385651,103.37593 c -3.210356,-0.49334 -5.505008,-1.37018 -7.92998,-3.03017 -1.218667,-0.834236 -2.99743,-2.543764 -3.880379,-3.729342 -0.659722,-0.885841 -0.679747,-1.02634 -0.39479,-2.76989 0.523327,-3.202022 0.792568,-7.298453 0.792568,-12.058609 v -3.615787 l 0.823902,-0.802387 c 2.816495,-2.742946 5.86695,-4.381345 9.412079,-5.055229 1.314707,-0.249905 4.419007,-0.255162 6.058987,-0.01027 3.169791,0.473359 6.486157,2.154387 8.974304,4.548978 l 1.191081,1.146294 0.06126,6.270127 c 0.06218,6.364113 0.163592,8.083277 0.643221,10.904616 l 0.200187,1.177573 -0.979647,1.132743 c -2.584663,2.988593 -5.615882,4.751603 -9.631308,5.601763 -1.160673,0.24575 -4.462092,0.42473 -5.34149,0.28958 z"
       id="path17908" />
    <path
       style="fill:none;stroke:#000000;stroke-width:0.264583px;stroke-linecap:butt;stroke-linejoin:miter;stroke-opacity:1"
       d="M 55.865878,14.507426 C 60.292,12.092422 63.805838,12.64234 66.952086,14.386924 m 5.459433,-0.04194 c 4.426122,-2.415004 7.93996,-1.865086 11.086208,-0.120502"
       id="path17936"
       sodipodi:nodetypes="cccc" />
  </g>
</svg>
